<svg version="1.1" xmlns="http://www.w3.org/2000/svg" style="display: block;" viewBox="0 0 1600 1600" width="400" height="400" preserveAspectRatio="none">
<path transform="translate(0,0)" fill="rgb(0,0,0)" fill-opacity="0.988235" d="M 992.321 113.425 C 1124.09 105.501 1237.43 205.663 1245.78 337.402 C 1254.13 469.142 1154.33 582.808 1022.61 591.576 C 890.304 600.384 776.009 500.033 767.625 367.696 C 759.241 235.358 859.957 121.385 992.321 113.425 z M 1014.35 584.236 C 1142.06 579.317 1241.81 472.165 1237.59 344.431 C 1233.38 216.696 1126.78 116.356 999.021 119.869 C 870.267 123.409 768.97 231.025 773.219 359.759 C 777.468 488.492 885.641 589.194 1014.35 584.236 z"/>
<path transform="translate(0,0)" fill="rgb(25,24,25)" d="M 971.734 158.316 C 990.872 144.768 1012.47 130.913 1030.89 155.086 C 1050.72 147.544 1068.06 147.26 1077.5 169.589 C 1096.72 171.442 1110.97 174.756 1111.96 197.322 C 1126.28 205.558 1140.19 213.962 1134.39 233.44 C 1136 238.317 1150.02 242.732 1150.63 252.175 C 1151.4 258.488 1149.59 265.172 1150.42 271.475 C 1153.07 291.531 1155.26 299.419 1139.02 313.831 C 1155.64 339.905 1144.06 353.259 1122.97 368.609 C 1107.36 411.767 1096.27 384.028 1079.43 402.194 L 1074.98 397.589 C 1096.09 359.346 1053.44 369.399 1048.36 365.7 C 1048.68 363.244 1050.11 362.253 1051.87 360.419 C 1051.98 357.565 1050.12 356.175 1047.82 353.674 C 1046.74 352.51 1045.65 351.354 1044.55 350.207 L 1042.77 338.652 C 1031.3 328.549 1027.5 323.412 1025.36 307.816 C 1015.11 301.62 1010.53 298.319 1003.69 288.465 C 992.409 292.724 987.137 292.547 975.825 287.462 C 969.95 294.975 959.764 302.556 955.254 309.06 C 949.812 319.822 947.596 335.749 944.973 347.256 C 941.042 364.498 931.604 388.177 934.025 405.84 C 939.264 444.065 988.122 437.846 1013.38 432.279 C 1015.17 416.078 1021.42 404.14 1034.33 393.841 C 1040.81 388.663 1057.02 377.963 1061.42 390.418 L 1060.24 391.726 C 1049.61 391.304 1046.67 391.247 1037.77 398.561 C 1031.68 403.571 1018.64 421.254 1020.46 428.898 C 1022.91 428.958 1027.07 428.775 1029.14 429.727 L 1029.27 431.072 C 1026.03 434.197 1022.93 435.137 1018.81 436.832 C 1024.18 451.402 1026.5 455.92 1041.67 461.56 C 1059.56 457.44 1067.72 445.075 1071.05 427.393 C 1071.96 422.56 1069.94 416.574 1072.36 412.79 C 1080.73 413.544 1078.13 425.009 1076.81 430.515 C 1073.33 444.936 1067.26 455.03 1055.17 463.654 C 1033.89 473.882 1018.03 458.995 1013.41 438.941 C 1007.08 440.245 1000.74 441.489 994.396 442.675 C 995.116 451.272 997.962 481.757 988.678 484.64 L 985.177 483.477 C 984.797 481.424 984.74 479.352 984.614 477.265 C 987.561 473.076 989.205 448.124 989.327 442.386 C 978.402 443.429 959.398 441.543 949.839 435.648 C 949.51 435.622 949.181 435.595 948.852 435.569 C 918.882 421.183 925.371 393.572 929.807 367.204 C 928.069 364.388 917.37 358.385 915.44 356.908 C 896.497 342.418 876.239 326.357 882.275 300.921 C 869.485 273.691 872.849 261.85 891.154 238.983 C 895.697 201.466 901.048 207.863 927.26 185.452 C 943.794 171.316 940.953 155.222 971.734 158.316 z"/>
<path transform="translate(0,0)" fill="rgb(0,0,0)" d="M 949.839 435.648 C 969.155 438.952 986.01 444.593 1005.66 438.136 C 1023 432.441 1013 455.963 1031.57 462.142 C 1044.08 466.3 1042.75 464.585 1055.17 463.654 C 1033.89 473.882 1018.03 458.995 1013.41 438.941 C 1007.08 440.245 1000.74 441.489 994.396 442.675 C 995.116 451.272 997.962 481.757 988.678 484.64 L 985.177 483.477 C 984.797 481.424 984.74 479.352 984.614 477.265 C 987.561 473.076 989.205 448.124 989.327 442.386 C 978.402 443.429 959.398 441.543 949.839 435.648 z"/>
<path transform="translate(0,0)" fill="rgb(55,161,254)" d="M 850.805 500.431 C 858.519 497.559 869.991 490.223 878.866 486.84 C 903.97 477.27 959.941 465.821 984.614 477.265 C 984.74 479.352 984.797 481.424 985.177 483.477 C 989.624 493.495 999.706 499.12 1010 501.507 L 1015.81 501.466 C 1036.15 496.864 1041.32 481.844 1048.97 480.18 C 1074.11 474.71 1151.22 489.514 1168.73 507.016 L 1168.68 509.625 C 1160.52 512.323 1150.28 504.963 1142.55 502.068 C 1114.21 491.457 1079.59 484.425 1049.21 484.704 C 1043.07 498.81 1036.21 504.835 1020.79 507.734 C 1014.87 508.575 1008.78 507.926 1002.92 507.075 C 987.296 503.107 983.035 494.229 978.25 480.281 C 922.894 478.84 902.449 484.531 851.996 506.747 C 851.424 506.39 850.631 505.488 850.113 504.963 L 850.805 500.431 z"/>
<path transform="translate(0,0)" fill="rgb(0,0,0)" fill-opacity="0.988235" d="M 921.375 372.176 C 923.676 372.208 923.511 372.229 925.468 373.477 C 924.151 375.807 916.245 377.722 913.569 379.513 C 891.761 394.106 879.165 424.421 914.77 431.577 C 920.178 429.655 926.288 425.792 931.156 425.439 L 932.194 426.856 L 931.396 430.576 C 916.511 442.613 901.583 438.634 889.115 426.29 C 881.326 400.443 893.898 376.331 921.375 372.176 z"/>
<path transform="translate(0,0)" fill="rgb(0,0,0)" d="M 1005.38 384.941 C 1007.46 385.773 1006.49 385.175 1007.91 387.428 C 1008.44 401.085 987.364 422.025 976.292 413.058 C 980.004 406.954 998.757 405.071 998.602 393.713 C 989.807 396.929 961.023 402.104 954.346 394.745 L 955.53 393.949 C 968.876 394.492 992.793 391.101 1004.37 385.443 L 1005.38 384.941 z"/>
<path transform="translate(0,0)" fill="rgb(0,0,0)" d="M 982.508 331.697 C 982.928 332.078 983.764 333.449 984.124 333.992 C 984.235 343.229 978.291 359.359 975.742 369.281 C 976.393 369.35 977.043 369.424 977.693 369.505 C 981.733 370.006 986.907 370.609 989.463 373.898 L 989.008 375.357 L 986.746 376.523 C 965.161 376.51 969.024 368.563 974.367 350.509 C 975.864 345.452 979.618 335.868 982.508 331.697 z"/>
<path transform="translate(0,0)" fill="rgb(0,0,0)" d="M 1041.78 405.193 C 1057.05 404.583 1063.06 407.42 1074.98 397.589 L 1079.43 402.194 C 1067.53 413.864 1055.61 409.99 1041.78 405.193 z"/>
<path transform="translate(0,0)" fill="rgb(55,161,254)" fill-opacity="0.984314" d="M 850.805 500.431 L 850.113 504.963 C 850.631 505.488 851.424 506.39 851.996 506.747 C 848.102 509.096 845.313 511.426 841.092 510.992 L 840.966 508.879 C 843.107 504.852 846.868 503.029 850.805 500.431 z"/>
<path transform="translate(0,0)" fill="rgb(0,0,0)" fill-opacity="0.988235" d="M 958.907 337.35 C 960.912 336.505 963.228 337.368 964.19 339.32 C 965.151 341.272 964.424 343.635 962.532 344.709 C 961.206 345.462 959.571 345.418 958.287 344.595 C 957.003 343.772 956.281 342.305 956.411 340.785 C 956.541 339.266 957.502 337.943 958.907 337.35 z"/>
<path transform="translate(0,0)" fill="rgb(0,0,0)" fill-opacity="0.972549" d="M 1006.16 340.377 C 1008.11 339.692 1010.26 340.609 1011.11 342.489 C 1011.97 344.369 1011.24 346.59 1009.45 347.605 C 1008.13 348.347 1006.51 348.284 1005.26 347.444 C 1004.01 346.603 1003.34 345.128 1003.53 343.633 C 1003.72 342.137 1004.74 340.878 1006.16 340.377 z"/>
<path transform="translate(0,0)" fill="rgb(0,0,0)" d="M 510.786 497.543 C 554.316 492.816 614.33 503.575 651.343 527.925 C 696.126 557.244 721.215 604.125 731.173 655.799 C 754.753 778.157 675.09 865.241 559.887 887.643 C 504.08 893.748 457.911 888.375 411.701 853.086 C 369.586 819.575 345.249 767.185 340.036 714.426 C 328.656 599.247 394.988 510.883 510.786 497.543 z M 512.13 695.272 C 500.802 687.476 493.025 678.495 491.217 664.445 C 488.112 640.323 497.369 594.979 502.988 571.377 C 506.715 602.571 493.828 631.734 496.873 662.32 C 498.543 679.096 514.144 689.006 528.267 694.245 C 528.332 694.753 528.397 695.26 528.463 695.767 C 524.67 698.163 521.109 694.748 517.726 697.004 C 515.637 713.633 520.435 713.37 512.915 733.013 C 523.962 736.931 553.378 740.014 559.718 728.459 C 558.353 716.33 557.363 710.284 558.966 698.215 C 554.147 698.571 550.137 699.048 545.326 698.437 L 543.759 695.798 C 547.451 692.027 562.931 693.131 569.154 683.505 C 586.537 656.618 586.765 623.606 594.425 593.461 C 595.003 591.189 595.69 589.793 597.603 588.419 L 597.049 588.319 L 597.986 589.476 L 596.773 588.733 C 603.156 599.004 588.715 646.582 588.468 658.509 C 589.089 658.667 589.709 658.825 590.33 658.983 C 621.96 646.907 594.158 627.529 601.673 624.017 C 622.647 636.869 612.267 664.022 585.293 664.563 C 580.663 680.037 576.781 685.612 564.43 696.051 C 562.01 708.912 563.13 712.986 565.121 725.753 C 568.107 723.211 571.344 720.328 574.422 717.956 L 575.304 718.617 C 586.46 727.089 596.451 743.214 605.268 753.711 C 606.404 755.063 621.281 754.132 625.384 754.236 C 655.735 755.003 681.571 766.329 702.573 787.851 C 736.306 727.322 733.233 656.673 701.612 594.955 C 669.176 531.645 585.671 495.95 515.597 504.359 C 402.485 517.123 336.518 596.731 347.267 711.713 C 349.287 733.315 359.101 772.065 370.852 790.316 C 394.304 779.103 413.3 770.321 439.162 764.89 C 449.446 762.73 460.738 761.819 470.135 759.764 C 474.942 747.31 485.037 734.435 493.953 724.438 L 507.927 730.875 C 512.557 715.79 514.013 711.004 512.13 695.272 z M 562.139 880.66 C 547.393 856.426 542.618 823.43 537.92 795.823 C 537.59 793.888 535.351 793.632 533.689 793.318 C 527.896 800.433 522.18 871.209 519.806 884.115 C 524.148 883.878 540.531 883.481 543.333 882.629 L 562.139 880.66 z M 549.171 778.435 L 558.288 775.897 C 576.626 767.542 579.829 764.307 596.202 752.935 C 592.59 747.256 579.657 728.857 573.844 726.744 C 559.881 738.141 555.416 739.539 538.082 743.637 C 545.08 754.245 548.459 765.753 549.171 778.435 z M 533.168 747.249 C 527.801 764.915 510.548 778.507 532.468 787.603 C 535.591 786.988 540.289 786.242 542.044 783.289 C 546.712 775.434 540.01 751.442 533.168 747.249 z M 475.089 758.943 C 488.863 765.301 499.202 770.137 513.744 774.545 L 515.433 774.225 C 520.611 762.228 524.068 754.924 530.375 743.248 C 512.94 741.043 508.879 738.642 494.107 729.408 C 487.886 739.034 481.052 749.214 475.089 758.943 z M 598.361 760.134 C 577.952 775.25 574.965 777.177 550.273 783.614 L 543.709 792.236 C 546.868 809.163 549.493 822.882 554.097 839.493 C 557 849.967 564.305 870.107 565.887 879.842 C 594.028 873.174 599.405 871.03 625.058 859.207 C 650.107 845.585 685.584 819.252 698.935 793.848 C 691.601 788.967 684.931 783.248 677.619 778.772 C 650.831 762.374 628.663 759.328 598.361 760.134 z M 526.363 793.208 C 520.237 788.914 519.081 787.68 514.91 781.036 C 502.295 778.645 493.949 775.517 483.046 768.77 C 479.114 766.336 476.985 764.883 472.292 764.273 C 442.015 770.245 412.37 774.85 384.648 789.258 C 380.829 791.242 376.895 793.685 373.057 795.448 C 389.797 825.019 415.505 850.665 446.045 865.85 C 477.331 880.907 483.635 878.472 514.348 884.434 C 513.061 866.185 522.874 812.826 526.363 793.208 z"/>
<path transform="translate(0,0)" fill="rgb(0,0,0)" d="M 566.639 526.174 C 568.932 528.828 568.355 527.364 568.791 530.55 C 556.68 548.316 523.662 517.162 510.606 568.743 C 507.86 567.644 508.93 568.508 507.271 566.076 C 507.062 520.73 547.448 537.005 566.639 526.174 z"/>
<path transform="translate(0,0)" fill="rgb(0,0,0)" d="M 585.044 533.614 C 587.483 535.07 586.556 534.062 587.654 536.958 C 587.053 541.177 584.917 543.83 582.625 547.494 C 557.234 560.838 547.662 542.391 530.968 573.022 L 528.964 572.934 L 528.09 571.6 C 532.767 542.21 556.248 550.64 576.383 543.535 C 579.394 539.787 581.76 537.109 585.044 533.614 z"/>
<path transform="translate(0,0)" fill="rgb(0,0,0)" d="M 603.475 549.167 L 605.878 552.418 C 608.134 551.851 607.196 552.422 608.722 550.553 L 609.604 551.928 C 603.836 571.212 579.94 564.587 563.402 572.78 C 561.628 576.551 560.908 579.033 557.414 580.578 L 556.213 579.022 C 556.185 560.636 579.065 562.747 591.308 559.416 C 598.314 557.51 600.28 555.188 603.475 549.167 z"/>
<path transform="translate(0,0)" fill="rgb(0,0,0)" d="M 625.031 561.55 C 626.407 562.064 627.767 562.612 627.74 564.268 C 627.424 583.645 600.842 577.333 588.737 582.097 C 586.251 583.076 582.767 586.582 580.832 588.431 C 578.486 587.436 579.348 588.224 578.134 586.021 C 587.929 570.739 598.822 575.406 614.157 571.726 L 615.375 571.427 C 618.421 568.776 622.171 564.57 625.031 561.55 z"/>
<path transform="translate(0,0)" fill="rgb(0,0,0)" fill-opacity="0.988235" d="M 480.502 608.364 C 485.82 607.472 486.588 607.534 491.849 608.184 L 492.503 609.429 C 486.026 617.265 452.25 618.907 482.337 646.971 C 482.612 649.234 482.744 648.143 481.518 650.21 C 470.245 652.311 452.465 620.69 480.502 608.364 z"/>
<path transform="translate(0,0)" fill="rgb(0,0,0)" fill-opacity="0.976471" d="M 558.074 641.782 L 559.271 642.44 C 562.733 652.983 543.76 660.565 536.064 662.508 C 526.278 659.879 524.332 659.593 517.742 651.832 C 517.049 649.889 516.81 648.622 516.351 646.633 L 517.195 645.699 C 525.431 648.615 526.888 656.05 533.607 656.155 C 542.597 656.295 551.793 647.336 558.074 641.782 z"/>
<path transform="translate(0,0)" fill="rgb(0,0,0)" d="M 540.976 591.454 L 542.693 592.398 C 544.531 595.954 540.185 629.451 536.966 632.977 C 529.653 624.057 536.198 600.86 540.976 591.454 z"/>
<path transform="translate(0,0)" fill="rgb(0,0,0)" fill-opacity="0.976471" d="M 518.929 598.81 C 521.263 597.968 523.843 599.135 524.751 601.443 C 525.659 603.752 524.566 606.364 522.285 607.338 C 520.75 607.993 518.98 607.763 517.664 606.736 C 516.348 605.708 515.695 604.047 515.958 602.399 C 516.221 600.751 517.359 599.376 518.929 598.81 z"/>
<path transform="translate(0,0)" fill="rgb(0,0,0)" fill-opacity="0.984314" d="M 603.475 549.167 C 604.992 544.801 603.985 545.516 607.116 543.578 L 609.383 544.286 C 610.808 547.201 611.225 548.766 609.604 551.928 L 608.722 550.553 C 607.196 552.422 608.134 551.851 605.878 552.418 L 603.475 549.167 z"/>
<path transform="translate(0,0)" fill="rgb(0,0,0)" fill-opacity="0.984314" d="M 780.84 1146.99 C 793.015 1150.27 825.092 1215.75 822.204 1229.08 C 819.321 1228.7 819.427 1228.82 816.916 1227.01 C 806.464 1207.76 802.88 1183.94 789.119 1165.84 C 785.697 1161.34 779.844 1152.37 780.84 1146.99 z"/>
<path transform="translate(0,0)" fill="rgb(0,0,0)" fill-opacity="0.968627" d="M 748.072 1197.45 C 751.77 1196.78 755.316 1199.23 755.983 1202.93 C 756.651 1206.63 754.188 1210.17 750.486 1210.83 C 746.796 1211.49 743.272 1209.04 742.606 1205.35 C 741.941 1201.66 744.386 1198.13 748.072 1197.45 z"/>
<path transform="translate(0,0)" fill="rgb(0,0,0)" fill-opacity="0.980392" d="M 785.36 1179.57 C 790.435 1179.83 794.001 1179.06 796.45 1184.03 C 796.227 1188.01 795.497 1189.01 793.833 1192.75 C 787.987 1192.59 786.626 1192.53 783.494 1187.78 C 782.931 1183.69 783.323 1183.42 785.36 1179.57 z"/>
<path transform="translate(0,0)" fill="rgb(0,0,0)" d="M 1356.41 668.081 C 1455.2 666.254 1536.73 744.941 1538.4 843.738 C 1540.08 942.534 1461.27 1023.94 1362.47 1025.47 C 1263.88 1026.99 1182.69 948.382 1181.02 849.8 C 1179.35 751.218 1257.83 669.905 1356.41 668.081 z M 1363.45 895.256 L 1366.33 899.137 C 1362.18 900.53 1358.84 900.711 1354.85 902.776 L 1354.46 904.981 C 1358.71 914.596 1374.68 921.859 1384.79 922.1 C 1397.22 922.395 1422.42 916.272 1422.68 901.01 L 1420.97 899.721 C 1412.92 899.171 1412.5 901.914 1406.04 907.181 L 1404.89 906.192 C 1402.53 889.361 1407.22 866.781 1411.3 850.314 C 1409.15 847.533 1407.47 846.005 1407.05 842.556 L 1408.1 841.268 C 1414.4 842.57 1416.5 846.069 1423.04 846.667 C 1447.83 836.457 1442.12 810.288 1412.72 825.241 C 1407.78 807.703 1408.08 795.319 1410.9 777.798 C 1386.7 782.619 1368.97 777.568 1345.77 773.035 L 1345.33 774.057 C 1335.26 797.459 1313.08 824.645 1323.32 852.327 C 1330.96 872.997 1357.92 877.925 1375.82 868.464 C 1379.28 866.736 1390.25 861.914 1393.34 861.769 L 1394.36 863.158 C 1392.7 871.236 1374.09 877.345 1366.99 878.807 C 1363.61 877.756 1363.47 876.989 1360.27 879.43 C 1351.76 879.83 1336.74 876.899 1330.08 871.423 C 1298.36 845.324 1324.93 796.087 1342.71 771.311 C 1339.24 769.718 1333.71 767.973 1331.96 765.047 C 1332.17 760.698 1334.31 758.409 1337.36 755.586 C 1361.07 733.603 1418.09 716.882 1442.97 745.225 C 1461.34 766.14 1455.94 794.745 1436.64 812.685 C 1442.14 818.171 1444.63 820.536 1444.81 828.925 C 1445.02 838.939 1436.78 847.536 1427.35 849.868 C 1421.58 851.512 1420.32 851.492 1414.31 851.576 C 1413.5 863.993 1412.83 882.926 1410.79 894.775 C 1446.57 889.209 1488.16 906.327 1498.4 943.457 C 1526.16 904.465 1534.73 857.815 1526.62 811.022 C 1519.71 771.213 1499.94 729.684 1465.89 706.22 C 1389.33 653.587 1273.42 672.837 1220.02 749.499 C 1194.59 785.998 1185.81 835.21 1194.3 878.635 C 1201.05 913.101 1214.8 939.45 1238.05 965.785 C 1253.9 915.346 1316.54 899.031 1363.45 895.256 z M 1429.26 899.521 C 1418.85 938.371 1356.2 937.817 1348.53 902.285 C 1298.78 913.023 1265.28 922.538 1240.08 970.859 C 1254.27 984.001 1272.26 999.063 1290.6 1006.04 C 1329.69 1024.18 1374.45 1025.72 1414.69 1010.31 C 1443.17 999.623 1475.92 975.425 1493.24 950.248 C 1481.58 915.762 1463.08 906.939 1429.26 899.521 z"/>
<path transform="translate(0,0)" fill="rgb(0,0,0)" fill-opacity="0.988235" d="M 1378.22 832.739 L 1380.41 833.298 L 1381.31 835.001 C 1376.79 845.188 1362.6 847.578 1352.59 846.087 C 1349.89 845.083 1348.94 844.943 1346.87 842.877 C 1349.1 840.68 1362.51 841.171 1366.9 839.285 C 1371.23 837.423 1374.35 835.261 1378.22 832.739 z"/>
<path transform="translate(0,0)" fill="rgb(0,0,0)" fill-opacity="0.988235" d="M 1366.39 790.517 L 1368.36 792.506 C 1368.88 798.65 1357.83 817.669 1354.23 823.453 C 1346.79 818.918 1361.01 795.239 1366.39 790.517 z"/>
<path transform="translate(0,0)" fill="rgb(0,0,0)" fill-opacity="0.984314" d="M 1342.41 789.544 C 1346.03 790.383 1347.29 790.595 1349.61 793.279 C 1350.41 797.49 1350.45 795.737 1348.93 800.176 C 1343.05 797.38 1340.82 795.605 1342.41 789.544 z"/>
<path transform="translate(0,0)" fill="rgb(0,0,0)" d="M 1382.72 797.994 C 1384.88 798.047 1384.09 797.983 1386.2 798.959 L 1386.9 801.016 C 1385.21 804.651 1385.99 803.417 1382.4 805.914 C 1379.46 804.673 1379.02 804.635 1376.81 802.456 C 1377.78 799.931 1379.79 799.587 1382.72 797.994 z"/>
<path transform="translate(0,0)" fill="rgb(25,24,25)" d="M 1342.71 771.311 C 1339.24 769.718 1333.71 767.973 1331.96 765.047 C 1332.17 760.698 1334.31 758.409 1337.36 755.586 C 1361.07 733.603 1418.09 716.882 1442.97 745.225 C 1461.34 766.14 1455.94 794.745 1436.64 812.685 C 1442.14 818.171 1444.63 820.536 1444.81 828.925 C 1445.02 838.939 1436.78 847.536 1427.35 849.868 C 1422.31 849.496 1409.08 851.135 1409.45 843.647 C 1414 842.669 1413.59 848.475 1422.01 847.97 L 1423.04 846.667 C 1447.83 836.457 1442.12 810.288 1412.72 825.241 C 1407.78 807.703 1408.08 795.319 1410.9 777.798 C 1386.7 782.619 1368.97 777.568 1345.77 773.035 L 1342.71 771.311 z"/>
<path transform="translate(0,0)" fill="rgb(0,0,0)" d="M 1342.71 771.311 L 1345.77 773.035 L 1345.33 774.057 C 1335.26 797.459 1313.08 824.645 1323.32 852.327 C 1330.96 872.997 1357.92 877.925 1375.82 868.464 C 1379.28 866.736 1390.25 861.914 1393.34 861.769 L 1394.36 863.158 C 1392.7 871.236 1374.09 877.345 1366.99 878.807 C 1363.61 877.756 1363.47 876.989 1360.27 879.43 C 1351.76 879.83 1336.74 876.899 1330.08 871.423 C 1298.36 845.324 1324.93 796.087 1342.71 771.311 z"/>
<path transform="translate(0,0)" fill="rgb(0,0,0)" fill-opacity="0.976471" d="M 1360.27 879.43 C 1363.47 876.989 1363.61 877.756 1366.99 878.807 C 1367.7 888.483 1367.18 889.82 1366.33 899.137 L 1363.45 895.256 C 1363.77 889.046 1365.4 883.38 1360.27 879.43 z"/>
<path transform="translate(0,0)" fill="rgb(55,161,254)" d="M 1147.59 556.134 C 1152.86 556.624 1176.51 600.408 1181.15 608.276 L 1238.85 706.37 C 1185.5 747.232 1157.13 832.219 1180.58 895.861 C 1169.97 900.562 1153.33 910.178 1142.76 915.891 L 1074.22 952.774 C 1061.67 925.305 1039.54 926.381 1013.4 916.471 C 998.767 910.923 989.134 908.145 975.199 900.668 C 979.709 906.638 990.358 916.177 996.152 922.167 C 1015.14 955.785 974.362 975.034 947.322 956.377 C 922.416 939.192 911.311 910.322 910.362 880.602 C 910.116 872.902 914.439 865.067 912.494 857.517 C 910.13 854.013 907.473 853.222 903.621 851.329 C 906 846.643 907.474 842.387 909.427 837.557 C 937.638 767.807 965.553 697.939 993.391 628.04 C 994.336 625.667 1000.05 613.558 1002.08 612.089 C 1025.56 595.069 1055.1 593.176 1081.5 583.635 C 1085.27 582.27 1084.7 582.135 1087.49 583.348 C 1091.92 589.809 1090.11 603.547 1089.09 611.122 C 1110.45 586.726 1115 565.653 1147.59 556.134 z"/>
<path transform="translate(0,0)" fill="rgb(55,161,254)" d="M 87.5031 582.379 C 111.092 581.566 134.533 592.855 157.565 593.91 C 184.096 594.842 209.213 586.433 235.752 592.125 C 279.994 601.614 305.584 631.103 349.571 600.516 C 330.648 655.087 325.793 700.119 342.513 757.136 C 353.217 793.637 382.074 843.312 416.261 861.451 C 391.59 888.327 385.41 880.792 353.712 894.39 C 344.921 898.676 335.231 906.085 332.493 915.872 C 328.241 931.066 333.196 936.193 347.02 940.156 C 355.519 938.757 375.164 930.354 381.155 934.276 L 381.45 936.745 C 380.033 941.135 377.124 943.862 374.074 947.423 C 373.011 948.217 373.049 948.62 372.324 949.955 L 373.262 951.617 C 384.088 958.577 397.511 967.366 410.908 965.443 L 412.304 966.974 C 412.411 972.94 408.336 977.012 402.982 978.996 C 386.491 985.108 370.579 969.751 356.681 962.661 L 355.638 962.134 C 352.8 962.812 349.925 963.325 347.027 963.672 C 313.957 967.773 301.559 944.324 282.34 922.96 C 264.977 903.661 238.421 897.56 224.024 874.309 C 200.14 835.736 204.519 741.171 172.044 716.29 C 146.475 696.7 115.389 709.36 87.2829 712.898 C 77.622 714.114 68.1767 711.87 60.4948 705.786 C 47.3825 695.401 42.7504 676.763 40.9706 660.951 C 38.6534 640.366 39.353 615.976 53.0474 599.118 C 62.158 587.903 73.5085 583.837 87.5031 582.379 z"/>
<path transform="translate(0,0)" fill="rgb(25,24,25)" d="M 606.338 1437.6 C 502.392 1364.26 476.18 1221.26 547.357 1115.81 C 618.534 1010.37 760.962 981.212 867.852 1050.19 C 974.741 1119.18 1006.84 1260.97 940.084 1369.26 C 873.327 1477.56 732.226 1512.58 622.576 1448.08 C 624.06 1446.74 625.346 1446.49 627.227 1445.85 C 632.587 1447.28 679.097 1437.81 688.948 1436.3 C 688.042 1427.05 684.385 1410.5 690.901 1403.54 C 695.312 1402 696.01 1402.92 701.091 1403.75 C 701.109 1380.56 694.607 1354.89 691.133 1331.64 C 678.125 1333.07 667.149 1333.71 656.093 1325.53 C 638.524 1312.54 638.067 1293.24 649.728 1276.53 C 629.035 1248.44 615.063 1210.02 617.023 1174.26 C 618.254 1155.34 635.405 1144.99 647.394 1133.27 C 666.022 1115.07 677.113 1098.73 703.099 1089.76 C 734.386 1078.97 763.516 1094.75 794.6 1085.28 C 808.619 1081 806.109 1069.02 814.579 1062.17 L 816.498 1062.88 C 822.663 1072.71 816.983 1094.99 812.464 1105.06 C 794.012 1148.31 745.291 1138.14 712.071 1150.98 C 644.162 1177.24 693.373 1273.56 740.371 1293.99 L 741.766 1294.59 C 744.231 1261.49 749.208 1255.95 776.848 1238.61 C 781.228 1235.87 786.594 1232.06 789.236 1227.5 C 789.824 1222.3 787.719 1221.42 783.867 1218.09 C 770.887 1206.88 764.046 1190.91 758.13 1175.04 C 764.552 1181.03 772.568 1193.79 778.435 1201.17 C 786.098 1210.81 797.953 1216.81 797.364 1228.5 C 797.038 1234.98 823.277 1227.54 831.638 1238.03 C 840.361 1248.99 839.717 1248.1 840.959 1262.95 C 854.375 1277.14 872.652 1287.29 873.613 1310.4 C 874.218 1324.92 866.107 1338.39 856.309 1348.54 C 838.433 1367.2 813.81 1377.89 787.974 1378.21 C 788.825 1385.14 788.195 1391.05 791.617 1397.15 L 793.494 1397.6 L 796.847 1394.89 L 798.853 1395.14 C 802.74 1399.44 800.432 1421.29 800.7 1429.67 C 827.283 1424.22 852.243 1421.74 879.245 1424.1 C 889.747 1417.66 906.947 1398.91 914.881 1388.84 C 952.442 1341.15 970.833 1286.43 963.893 1225.61 C 956.814 1163.57 925.782 1099.63 876.4 1060.45 C 831.964 1026.09 773.279 1015.27 718.168 1022.55 C 502.387 1051.04 443.646 1305.64 612.935 1436.44 L 612.594 1439.05 L 611.274 1439.69 C 609.683 1439.01 607.931 1438.22 606.338 1437.6 z M 707.605 1406.84 C 722.703 1407.21 743.955 1406.61 758.852 1403.93 C 766.602 1402.5 774.328 1400.94 782.029 1399.26 C 782.216 1392.22 782.553 1385.19 783.037 1378.17 C 705.582 1368.75 684.609 1274.44 670.744 1270.7 C 653.992 1282.4 641.493 1291.27 654.555 1313.66 C 664.002 1329.85 691.188 1321.49 694.605 1327.25 C 705.962 1346.41 710.906 1385.05 707.605 1406.84 z M 785.354 1290.83 C 790.837 1285.5 800.136 1270.82 801.892 1269.99 C 808.949 1274.23 813.236 1276.08 821.752 1274.16 L 821.765 1272.98 C 816.218 1269.97 811.182 1267.83 806.421 1263.63 C 803.615 1261.16 800.755 1257.32 798.067 1255.37 C 790.893 1273.61 790.661 1282.21 772.17 1292.03 C 769.253 1293.58 764.007 1296.27 764.241 1299.58 C 770.752 1302.51 780.456 1294.92 785.354 1290.83 z"/>
<path transform="translate(0,0)" fill="rgb(55,161,254)" d="M 1215.69 487.668 C 1221.91 487.767 1229.26 489.125 1234.68 492.248 C 1239.16 494.793 1242.37 499.1 1243.52 504.122 C 1247.17 519.693 1233.46 542.243 1225.26 555.318 C 1241.04 550.243 1282.8 547.29 1299.16 551.343 C 1314.94 555.25 1327.97 561.543 1337.04 575.391 C 1361.09 561.347 1363.23 555.018 1376.69 532.76 C 1386.63 537.279 1393.43 540.352 1402.44 546.717 C 1411.6 553.185 1424.83 565.057 1434.69 569.378 C 1462.99 581.775 1494.1 579.736 1521.22 596.935 C 1543.45 611.033 1554.84 627.809 1561.18 652.925 C 1538.16 655.385 1532.43 656.074 1513.34 669.393 C 1500.1 681.405 1494.15 687.721 1483.25 701.868 C 1438.89 663.565 1370.19 653.718 1314.4 668.025 C 1291.75 673.833 1274.38 682.544 1254.17 693.796 C 1224.93 642.89 1193.15 592.517 1163.17 541.909 C 1173.58 532.912 1183.45 524.622 1192.79 514.518 C 1200.86 505.787 1207.78 496.347 1215.69 487.668 z"/>
<path transform="translate(0,0)" fill="rgb(55,161,254)" d="M 612.68 313.422 C 623.766 312.548 638.885 318.511 647.254 326.03 C 664.066 341.136 666.984 359.5 668.381 380.841 C 669.357 380.709 670.335 380.594 671.315 380.498 C 753.026 372.261 677.574 453.097 669.119 484.709 C 664.391 502.385 664.007 512.048 665.842 530.472 C 629.544 505.755 605.68 501.104 564.251 492.204 C 543.656 491.75 526.976 489.746 506.039 491.799 C 491.232 493.25 460.89 504.27 449.201 496.354 C 416.274 474.055 458.926 449.81 468.598 429.352 C 473.538 418.904 474.035 404.542 481.301 394.795 C 496.774 376.893 521.815 372.151 541.357 360.072 C 569.114 342.914 578.141 318.227 612.68 313.422 z"/>
<path transform="translate(0,0)" fill="rgb(55,161,254)" d="M 876.402 580.373 C 938.756 588.012 894.739 649.468 913.057 664.513 C 922.771 665.652 960.921 634.043 971.252 626.253 C 946.919 692.147 918.624 758.806 892.447 824.163 C 889.993 830.29 886.041 845.741 881.154 848.407 C 870.753 842.635 886.403 819.214 890.435 811.801 C 865.238 816.92 864.572 834.008 844.17 845.755 C 829.099 854.432 815.367 831.032 795.659 825.194 L 794.461 824.845 C 779.159 829.89 768.665 839.303 755.576 848.922 C 749.592 853.955 733.309 861.65 725.215 859.451 C 721.963 858.58 719.225 856.385 717.667 853.4 C 707.471 834.11 731.485 818.128 745.78 811.417 C 744.453 809.057 741.17 803.483 741.306 801.048 C 742.214 784.733 763.968 777.771 773.006 767.286 C 782.043 756.804 786.494 742.015 798.219 734.734 C 819.188 721.877 844.176 721.42 861.694 702.516 C 869.786 693.784 869.737 681.689 860.631 672.821 C 858.515 671.387 852.099 669.677 849.741 670.658 C 837.255 675.855 839.6 698.773 831.978 709.187 C 824.577 719.297 822.235 719.813 811.619 722.469 C 801.797 719.23 772.987 710.604 772.457 697.254 C 771.592 675.464 793.737 655.588 805.562 638.976 C 811.637 631.252 817.03 622.984 822.995 615.178 C 839.054 594.163 850.203 584.018 876.402 580.373 z"/>
<path transform="translate(0,0)" fill="rgb(55,161,254)" d="M 450.512 975.293 C 496.742 972.548 517.398 1012.14 553.188 1032.47 C 568.957 1041.44 585.513 1041.93 600.369 1052.28 C 560.694 1081.99 532.249 1116 515.04 1162.99 C 510.123 1173.18 508.334 1195.73 503.164 1204.42 C 487.91 1230.05 474.501 1241.46 467.146 1272.65 C 460.014 1295.7 472.364 1320.83 471.134 1326.98 L 469.65 1327.95 C 457.033 1328.58 439.383 1302.01 434.999 1291.46 C 419.809 1258.24 428.669 1212.08 439.442 1178.61 C 458.676 1118.83 419.095 1101.84 403.488 1050.87 C 398.565 1034.8 403.214 1015.28 412.156 1000.82 C 420.79 986.87 434.572 979.275 450.512 975.293 z"/>
<path transform="translate(0,0)" fill="rgb(55,161,254)" d="M 771.06 862.502 C 779.697 861.417 811.822 872.703 822.585 874.798 C 840.293 878.244 852.017 879.549 870.065 880.72 C 865.562 895.346 857.146 914.666 851.437 929.214 L 817.176 1016.58 C 805.507 1012.65 797.733 1011.1 785.5 1009.54 C 766.959 1005.06 730.161 1007.07 711.459 1009.53 C 693.552 996.615 681.169 975.407 681.962 953.257 C 683.888 899.443 718.364 863.383 771.06 862.502 z"/>
<path transform="translate(0,0)" fill="rgb(55,161,254)" d="M 1330.04 1068.18 C 1353.46 1066.74 1346.85 1084.8 1361.24 1094.99 C 1364.03 1096.98 1368.61 1086.42 1372.88 1084.56 C 1376.6 1087.5 1383.08 1100.86 1387.1 1105.56 C 1396.9 1117.11 1416.21 1127.36 1417.72 1144.14 C 1420 1169.72 1396.98 1203.35 1370.59 1206.71 C 1356.91 1208.46 1345.39 1199.24 1335.5 1191.25 C 1323.4 1183.12 1316.47 1174.43 1299.26 1172.25 C 1278.56 1169.64 1265.72 1181.17 1250.48 1192.88 C 1239.06 1175 1234.5 1154.9 1244.38 1135.23 C 1254.14 1115.81 1272.74 1110.12 1288.59 1097.61 C 1304.25 1085.24 1309.97 1074.43 1330.04 1068.18 z"/>
<path transform="translate(0,0)" fill="rgb(55,161,254)" d="M 437.063 331.315 C 462.622 329.99 488.624 331.071 496.606 359.672 C 490.905 380.578 475.613 390.296 461.985 405.568 C 446.205 423.253 433.702 443.401 422.368 464.121 C 417.571 472.89 410.286 486.761 402.044 492.176 C 380.178 493.287 382.156 480.219 371.391 474.452 C 328.372 450.985 339.411 441.33 352.502 405.236 C 369.77 357.625 384.164 341.611 437.063 331.315 z"/>
<path transform="translate(0,0)" fill="rgb(55,161,254)" d="M 888.907 893.654 C 904.216 903.187 907.894 943.038 919.264 956.547 C 932.052 971.737 960.612 979.127 979.057 981.888 C 980.934 986.067 979.582 990.533 978.365 994.879 C 975.512 1004.92 966.473 1011.38 957.654 1015.88 C 943.223 1023.23 928.809 1030.59 914.44 1038.05 C 910.328 1039.55 893.558 1049.38 889.503 1052.03 C 873.924 1040.44 854.422 1027.61 836.167 1020.74 C 851.68 988.179 862.917 950.388 877.804 917.222 C 881.547 908.884 884.056 901.57 888.907 893.654 z"/>
<path transform="translate(0,0)" fill="rgb(55,161,254)" d="M 238.749 524.184 C 257.045 524.834 269.175 545.519 284.067 550.262 C 296.149 554.109 330.552 541.459 335.031 565.353 C 338.848 585.72 329.887 603.507 308.225 607.844 C 283.676 606.258 267.537 584.887 245.785 575.497 C 232.17 569.004 196.372 570.141 212.159 545.376 C 219.217 534.306 225.795 527.379 238.749 524.184 z"/>
<path transform="translate(0,0)" fill="rgb(55,161,254)" d="M 257.695 469.321 C 300.444 463.947 344.925 513.413 300.325 533.322 C 279.683 539.63 275.547 523.845 262.121 513.234 C 251.32 504.697 234.447 500.08 242.516 482.086 C 245.51 475.411 251.257 471.9 257.695 469.321 z"/>
<path transform="translate(0,0)" fill="rgb(25,24,25)" d="M 990.914 599.414 L 994.511 599.721 L 995.614 601.182 C 995.884 609.287 989.46 618.916 986.484 626.572 L 902.241 838.001 C 887.661 874.9 872.811 911.691 857.692 948.373 C 848.786 970.574 838.677 998.291 828.673 1019.67 C 825.342 1018.39 826.561 1019.42 824.599 1016.87 C 824.206 1009.32 847.13 955.451 851.059 945.524 L 907.544 803.913 L 962.401 666.368 C 966.316 656.569 985.874 605.326 990.914 599.414 z"/>
<path transform="translate(0,0)" fill="rgb(25,24,25)" d="M 1179.25 903.596 C 1181.67 903.763 1181.27 903.9 1183.55 905.262 C 1183.76 906.29 1184.29 907.71 1183.63 908.335 C 1174.61 916.871 1144.25 931.363 1134.06 936.752 C 1103.25 953.28 1072.28 969.53 1041.17 985.499 C 995.697 1009.24 945.608 1037.48 900.005 1059.35 C 897.174 1057.9 895.421 1056.99 894.99 1053.96 C 897.816 1050.94 902.552 1050.11 906.713 1047.88 L 1002.46 997.58 L 1179.25 903.596 z"/>
<path transform="translate(0,0)" fill="rgb(55,161,254)" d="M 1185.24 917.252 C 1189.22 919.251 1203.66 948.762 1208.22 955.745 C 1201.38 973.07 1193.05 978.292 1178.4 964.85 C 1164.43 951.642 1160.5 944.273 1141.84 941.886 C 1153.44 933.019 1171.84 924.199 1185.24 917.252 z"/>
<path transform="translate(0,0)" fill="rgb(55,161,254)" d="M 1260.79 1008.73 C 1270.09 1011.68 1291.84 1024.67 1283.97 1036.19 C 1278.77 1043.82 1254.41 1048.65 1245.24 1050.8 C 1237.33 1051.35 1231.7 1051.48 1225.32 1045.92 C 1210.95 1033.5 1237.43 1020.49 1246.62 1016.48 C 1251.6 1014.3 1256.67 1012.39 1260.79 1008.73 z"/>
<path transform="translate(0,0)" fill="rgb(55,161,254)" d="M 1311.02 1032.06 C 1313.1 1031.84 1332.41 1034.81 1337 1035.49 C 1348.56 1037.71 1364.93 1034.97 1375.59 1038.49 C 1386.23 1042 1395.97 1050.91 1407.34 1054.25 L 1407.98 1055.9 C 1406.21 1058.57 1406.5 1057.79 1402.82 1059.19 C 1369.12 1067.55 1346.31 1070.6 1321.62 1042.95 C 1318.04 1038.93 1314.25 1037.34 1311.02 1032.06 z"/>
<path transform="translate(0,0)" fill="rgb(55,161,254)" d="M 359.062 486.382 C 391.257 484.731 411.726 515.343 373.218 522.918 C 365.073 524.137 354.873 525.299 347.423 521.317 C 343.377 519.13 340.476 515.299 339.468 510.813 C 336.3 497.223 347.012 488.808 359.062 486.382 z"/>
<path transform="translate(0,0)" fill="rgb(25,24,25)" fill-opacity="0.984314" d="M 1157.9 545.568 C 1163.64 550.148 1243.69 685.21 1247.71 694.89 C 1247.45 698.863 1247.67 697.502 1244.43 701.15 C 1235.34 694.916 1164.9 570.225 1154.67 550.906 C 1154.83 547.858 1155.17 548.502 1157.9 545.568 z"/>
<path transform="translate(0,0)" fill="rgb(55,161,254)" d="M 968.503 1075.54 C 982.181 1078.25 973.816 1098.42 970.631 1106.97 C 968.232 1113.41 960.42 1136.4 954.054 1137.84 L 943.754 1117.18 C 946.868 1100.83 955.628 1086.09 968.503 1075.54 z"/>
<path transform="translate(0,0)" fill="rgb(55,161,254)" d="M 1361.14 495.229 C 1369.98 494.225 1380.99 494.515 1385.73 503.691 C 1387.43 506.97 1387.6 510.827 1386.2 514.244 C 1383.65 520.688 1377.59 524.086 1371.57 526.571 C 1347.74 524.89 1332.23 508.745 1361.14 495.229 z"/>
<path transform="translate(0,0)" fill="rgb(0,0,0)" fill-opacity="0.980392" d="M 599.075 883.584 C 604.496 885.71 604.908 887.91 607.171 893.354 C 624.278 934.503 641.858 975.542 658.01 1017.07 C 659.256 1020.27 658.263 1021.87 657.179 1024.74 C 655.902 1024.27 653.706 1023.83 652.706 1021.45 C 633.943 976.874 615.664 931.578 598.324 886.423 C 598.574 885.476 598.825 884.53 599.075 883.584 z"/>
<path transform="translate(0,0)" fill="rgb(55,161,254)" d="M 738.37 730.208 C 748.168 732.488 761.217 746.968 760.505 757.216 C 759.919 765.664 758.636 768.817 752.961 774.671 C 726.241 789.609 735.981 742.01 738.37 730.208 z"/>
<path transform="translate(0,0)" fill="rgb(0,0,0)" fill-opacity="0.980392" d="M 802.051 500.92 C 804.635 500.46 804.461 500.388 806.816 501.514 L 807.106 503.148 C 802.929 510.063 722.818 564.074 709.73 573.67 C 709.02 573.731 706.96 573.57 706.133 573.529 L 704.731 571.945 C 704.789 571.634 704.802 571.312 704.906 571.013 C 706.548 566.299 791.178 508.152 802.051 500.92 z"/>
<path transform="translate(0,0)" fill="rgb(55,161,254)" d="M 1165.97 1003.1 C 1184.69 1001.14 1202.58 1022.24 1207.5 1038.53 C 1208.91 1043.19 1208.64 1047 1208.36 1051.75 C 1193.87 1055.93 1186.46 1026.87 1179.81 1018.18 C 1175.72 1012.83 1168.65 1008.66 1165.97 1003.1 z"/>
<path transform="translate(0,0)" fill="rgb(55,161,254)" d="M 387.178 536.237 C 390.26 535.818 392.239 535.32 394.469 537.365 C 393.516 539.449 370.585 566.256 366.983 570.438 C 358.265 568.615 357.579 556.269 362.837 549.662 C 370.527 540 375.107 538.394 387.178 536.237 z"/>
<path transform="translate(0,0)" fill="rgb(55,161,254)" d="M 399.828 920.223 C 411.673 919.709 436.922 928.309 436.342 942.253 C 434.997 945.517 433.386 946.042 430.24 948.07 C 411.784 937.47 415.9 932.505 393.589 928.544 C 392.156 925.723 392.376 927.197 393.127 923.946 C 395.7 921.236 396.092 921.301 399.828 920.223 z"/>
<path transform="translate(0,0)" fill="rgb(55,161,254)" fill-opacity="0.988235" d="M 942.058 1044.88 C 942.251 1046.07 942.447 1047.8 941.741 1048.86 C 934.168 1060.27 926.23 1070.55 919.653 1082.62 C 917.223 1079.46 914.271 1076.14 911.662 1073.08 L 904.428 1065.28 C 912.874 1058.87 931.584 1050.35 942.058 1044.88 z"/>
<path transform="translate(0,0)" fill="rgb(55,161,254)" d="M 1108.71 957.111 L 1109.3 957.624 L 1109.42 959.877 C 1105.98 966.017 1094.05 989.256 1088.21 991.232 L 1086.1 989.482 C 1082.57 982.778 1081.88 981.519 1079.85 974.187 C 1087.69 968.416 1099.83 962.43 1108.71 957.111 z"/>
<path transform="translate(0,0)" fill="rgb(55,161,254)" fill-opacity="0.988235" d="M 1215.97 1056.28 C 1223.14 1055.47 1237.81 1059.89 1246.38 1060.5 C 1251.18 1060.83 1263.91 1061.42 1267.54 1062.19 C 1270.05 1065.19 1269.37 1063.48 1269.44 1067.56 C 1256.4 1072.03 1221.3 1070.37 1215.97 1056.28 z"/>
<path transform="translate(0,0)" fill="rgb(0,0,0)" fill-opacity="0.984314" d="M 612.935 1436.44 C 617.534 1439.37 622.925 1442.64 627.227 1445.85 C 625.346 1446.49 624.06 1446.74 622.576 1448.08 C 617.021 1444.81 611.604 1441.31 606.338 1437.6 C 607.931 1438.22 609.683 1439.01 611.274 1439.69 L 612.594 1439.05 L 612.935 1436.44 z"/>
</svg>