<svg version="1.1" xmlns="http://www.w3.org/2000/svg" style="display: block;" viewBox="0 0 1600 1600" width="400" height="400" preserveAspectRatio="none">
<defs>
	<linearGradient id="Gradient1" gradientUnits="userSpaceOnUse" x1="611.338" y1="979.758" x2="616.983" y2="978.405">
		<stop class="stop0" offset="0" stop-opacity="0.964706" stop-color="rgb(0,0,0)"/>
		<stop class="stop1" offset="1" stop-opacity="1" stop-color="rgb(0,0,0)"/>
	</linearGradient>
</defs>
<path transform="translate(0,0)" fill="rgb(55,161,254)" d="M 161.736 287.487 L 162.509 287.909 C 163.785 290.144 161.888 300.717 161.379 304.454 C 154.446 355.359 186.987 392.01 222.486 424.139 C 365.944 553.974 553.351 593.568 739.457 625.725 C 767.19 630.486 794.966 635.003 822.779 639.274 C 835.105 641.209 862.248 645.948 873.337 645.514 C 867.932 668.766 860.544 693.64 854.083 716.668 L 824.932 820.989 C 819.872 839.123 813.041 861.224 809.037 879.142 C 774.83 880.05 740.598 879.027 706.506 876.076 C 542.83 860.433 342.984 797.252 203.747 708.306 C 176.436 689.005 130.28 656.457 116.004 624.941 C 66.8648 516.464 100.243 379.585 161.736 287.487 z M 500.218 706.064 C 503.137 693.121 520.122 625.714 524.955 615.939 C 478.568 603.309 432.123 590.099 390.152 566.578 C 386.237 564.384 380.249 560.873 376.195 559.252 C 367.042 593.704 363.983 613.811 358.34 648.144 C 369.154 670.347 474.252 711.306 497.814 711.393 C 500.098 708.886 499.388 709.751 500.218 706.064 z M 353.231 695.887 C 376.018 721.764 461.679 757.98 494.784 751.236 C 493.857 748.612 493.523 746.146 490.501 745.138 C 450.222 731.704 410.828 718.248 372.055 700.731 C 366.3 698.131 359.566 695.845 353.231 695.887 z M 347.673 731.174 C 347.853 734.647 348.166 735.4 351.069 737.749 C 380.98 761.951 417.244 773.555 453.831 783.451 C 467.968 787.275 480.469 792.307 494.993 788.292 C 497.131 780.902 484.657 777.314 479.072 775.939 C 458.329 770.832 437.75 765.682 417.703 758.185 C 403.517 753.507 357.776 732.393 347.673 731.174 z M 762.765 680.619 L 764.607 678.865 C 763.139 665.527 730.348 664.805 719.767 663.448 C 689.459 659.465 659.41 653.712 629.774 646.22 C 617.583 643.153 566.494 628.414 558.407 628.233 C 565.019 647.724 734.623 690.095 760.403 681.453 C 761.196 681.191 761.984 680.913 762.765 680.619 z M 151.684 372.391 C 125.995 424.444 119.554 478.395 124 535.787 C 127.97 587.043 134.318 602.7 170.309 638.943 L 175.928 644.506 L 176.887 644.412 C 175.066 631.406 169.519 614.744 168.157 603.701 C 161.643 550.849 161.309 472.481 174.976 420.906 C 168.18 412.627 151.326 386.64 153.575 373.591 C 152.945 373.191 152.314 372.791 151.684 372.391 z M 539.232 721.852 C 542.604 730.089 565.093 739.379 573.21 743.035 C 604.076 756.94 696.336 777.015 728.924 768.963 C 729.415 765.219 730.041 763.809 728.281 760.747 C 722.306 756.63 694.248 755.431 686.016 754.682 C 671.348 753.369 656.747 751.388 642.259 748.744 C 604.156 741.899 575.223 729.755 539.232 721.852 z M 547.057 678.882 C 566.47 707.074 718.194 733.256 751.475 723.984 C 751.475 721.747 751.981 720.154 750.237 718.841 C 743.071 713.446 723.971 712.181 715.12 711.403 C 678.308 708.169 644.398 703.08 608.436 694.659 C 594.719 691.377 581.058 687.864 567.459 684.123 C 562.857 682.885 550.836 679.263 547.057 678.882 z"/>
<path transform="translate(0,0)" fill="rgb(23,23,23)" d="M 792.669 459.402 C 812.172 457.339 836.109 461.212 855.303 464.907 C 856.103 471.261 856.384 479.35 856.869 485.897 C 858.357 505.983 874.212 511.911 892.421 509.553 C 910.996 507.148 923.378 488.114 933.576 473.879 C 939.315 475.548 944.961 477.519 950.492 479.783 C 988.27 495.177 1021.9 526.734 1039.95 563.298 C 1050.69 585.07 1056.98 609.281 1066.64 631.574 C 1070.38 640.201 1074.28 648.738 1077.91 657.414 C 1062.04 683.941 1042.27 701.926 1012.84 712.342 C 1008.89 713.738 1006.38 715.457 1002.09 716.1 C 996.779 713.283 983.737 681.878 979.763 673.996 C 972.655 689.507 966.033 702.767 959.284 718.739 C 937.351 770.64 928.648 815.871 921.473 871.143 C 909.812 903.773 851.535 872.077 832.045 861.751 C 838.785 830.433 849.314 793.88 857.601 762.258 C 868.364 721.185 878.877 678.173 890.278 637.407 C 839.431 628.495 786.031 623.832 734.626 614.378 C 734.721 612.925 734.851 611.476 735.015 610.029 C 739.936 567.033 774.638 563.459 776.372 548.202 C 775.045 547.725 774.3 547.504 772.874 547.921 C 749.702 554.696 743.008 565.384 730.855 583.685 C 722.44 581.594 713.347 580.057 704.786 578.448 C 704.667 573.475 704.627 568.501 704.667 563.528 C 704.992 531.658 722.103 488.523 745.102 466.052 C 759.993 461.846 777.132 460.759 792.669 459.402 z"/>
<path transform="translate(0,0)" fill="rgb(55,161,254)" d="M 1158.34 1186.76 C 1160.22 1187.65 1159.36 1187.06 1160.6 1188.99 C 1160.68 1198.79 1159.32 1207.9 1157.34 1218.13 C 1146.17 1275.83 1128.89 1334.87 1106.73 1389.22 C 1102.69 1399.13 1069.44 1411.24 1057.76 1414.38 C 971.32 1437.59 871.78 1420.63 790.649 1386 C 785.885 1383.97 783.611 1381.58 782.207 1376.77 C 773.032 1340.59 775.922 1234.97 777.5 1194.61 C 788.522 1198.97 800.804 1202.6 812.076 1206.45 C 914.255 1241.37 1073.74 1274.92 1158.34 1186.76 z M 1104.03 1249.1 C 1097.27 1267.05 1062.39 1384.44 1068.09 1396.82 C 1068.65 1398.04 1068.7 1397.95 1069.59 1399.07 C 1083.71 1393.32 1091.67 1386.34 1096.79 1371.96 C 1109.36 1336.7 1130.56 1271.16 1131.15 1235.46 C 1130.2 1234.39 1130.44 1234.27 1129.4 1233.95 C 1119.72 1238.4 1112.61 1242.7 1104.03 1249.1 z"/>
<path transform="translate(0,0)" fill="rgb(55,161,254)" d="M 1502.9 707.758 L 1503.95 708.783 C 1504.94 713.753 1462.53 824.566 1457.38 840.82 C 1450.56 862.376 1435.82 901.402 1425.49 923.109 C 1423.24 927.832 1406.25 938.796 1400.99 940.736 C 1323.44 974.279 1215.53 961.112 1139.22 932.884 L 1137.49 931.1 C 1135.24 922.907 1179.76 783.38 1179.53 763.259 C 1179.49 759.751 1185.89 728.933 1187.05 724.712 C 1250.76 751.638 1327.73 757.052 1395.91 751.334 C 1440.31 747.61 1472.65 742.782 1502.9 707.758 z M 1231.54 869.802 C 1246.86 844.916 1255.84 817.555 1261.27 788.902 C 1264.72 770.716 1259.97 771.655 1243.83 770.263 C 1236.67 769.646 1229.13 769.359 1221.95 768.728 C 1216.83 786.83 1189.76 856.55 1194.81 868.919 C 1199.26 873.348 1226.89 873.207 1231.54 869.802 z"/>
<path transform="translate(0,0)" fill="rgb(55,161,254)" d="M 298.641 241.497 C 332.767 240.718 362.189 241.025 396.282 244.393 C 360.708 306.208 338.73 410.135 323.237 480.609 C 314.686 473.213 300.41 464.025 290.629 457.024 C 283.7 450.807 271.404 442.74 263.207 435.465 C 226.369 403.154 180.596 366.546 175.47 313.992 C 169.685 254.683 257.185 244.709 298.641 241.497 z"/>
<path transform="translate(0,0)" fill="rgb(55,161,254)" d="M 977.103 1098.32 C 1011.32 1102.65 1051.23 1109.16 1083.69 1119.03 C 1103.96 1126.09 1136.32 1136.45 1146.43 1156.61 C 1161.41 1186.47 1129.06 1201.75 1107.4 1212.01 C 1071.41 1227.2 1032.53 1235.98 993.247 1234.64 C 982.957 1234.29 966.322 1231.62 955.691 1230.16 C 956.424 1210.67 962.977 1180.15 965.097 1159.76 C 966.853 1142.89 970.811 1122.61 973.149 1105.6 C 973.534 1102.79 975.104 1100.35 977.103 1098.32 z"/>
<path transform="translate(0,0)" fill="rgb(55,161,254)" d="M 771.837 294.138 C 787.012 246.546 804.691 255.639 848.058 262.197 C 875.24 266.308 903.114 275.919 928.055 286.905 C 959.509 296.584 942.775 371.708 922.556 380.794 C 901.117 390.427 848.065 369.79 824.917 363.386 C 778.914 350.66 762.129 348.49 771.18 297.446 L 771.837 294.138 z M 836.087 267.581 C 831.725 266.441 827.875 265.01 823.5 266.113 L 822.656 267.066 C 825.517 268.909 828.565 269.031 832.001 269.579 C 852.178 275.247 888.482 281.641 904.454 293.213 C 929.112 311.078 904.194 355.487 905.816 371.75 L 907.264 372.385 C 909.131 371.113 911.194 369.385 911.995 367.037 C 940.354 283.985 915.32 282.759 836.087 267.581 z"/>
<path transform="translate(0,0)" fill="rgb(55,161,254)" fill-opacity="0.384314" d="M 832.001 269.579 C 828.565 269.031 825.517 268.909 822.656 267.066 L 823.5 266.113 C 827.875 265.01 831.725 266.441 836.087 267.581 L 831.546 268.539 L 832.001 269.579 z"/>
<path transform="translate(0,0)" fill="rgb(55,161,254)" d="M 1343.45 604.603 C 1384.39 609.609 1469.45 647.593 1488.39 686.474 C 1499.6 709.493 1464.51 723.342 1448.5 728.813 C 1410.13 743.328 1351.79 740.378 1311.56 737.578 C 1324.88 693.796 1338.78 650.393 1343.45 604.603 z"/>
<path transform="translate(0,0)" fill="rgb(23,23,23)" d="M 708.285 890.661 L 710.253 892.203 C 710.404 894.605 708.927 897.207 707.501 899.126 C 686.229 927.738 663.828 956.556 645.796 987.315 C 630.562 1013.33 618.876 1041.27 611.047 1070.38 C 595.965 1126.27 596.366 1190.81 594.798 1249 L 590.782 1390.71 C 590.198 1413.14 590.153 1447.6 587.478 1469.1 C 604.297 1474.27 608.471 1473.3 625.658 1470.51 C 626.455 1456.98 631.469 1433.14 634.19 1419.36 L 650.376 1339.27 C 660.275 1290.29 670.347 1221.98 685.636 1176.49 C 693.049 1153.91 703.918 1132.62 717.856 1113.37 C 729.111 1097.76 748.638 1077.94 762.528 1064.13 C 785.841 1040.96 806.082 1021.16 826.214 994.85 C 836.887 980.959 846.776 966.483 855.837 951.491 C 861.209 942.669 882.796 900.395 887.169 896.666 C 889.517 894.664 890.398 894.34 893.404 894.566 L 894.686 896.485 C 894.995 900.628 894.663 901.347 893.348 905.33 C 870.091 954.811 839.26 1000.36 801.967 1040.34 C 771.454 1072.91 725.618 1110.27 706.926 1150.12 C 688.403 1189.62 678.169 1248.36 669.742 1291.8 L 648.331 1401.02 C 644.246 1421.87 639.092 1456.33 631.255 1475.1 C 610.906 1487.81 598.952 1484.21 579.359 1472.36 C 578.683 1465.45 578.983 1454.38 578.873 1447.01 C 578.445 1418.15 580.489 1389.28 581.114 1360.37 C 581.95 1313.76 583.191 1267.17 584.838 1220.59 C 586.085 1181.02 587.174 1136.79 593.667 1097.97 C 604.483 1033.31 637.675 974.623 678.329 924.132 C 684.446 916.535 700.584 896.089 708.285 890.661 z"/>
<path transform="translate(0,0)" fill="rgb(23,23,23)" d="M 885.625 211.247 C 886.547 211.156 887.471 211.082 888.395 211.025 C 960.386 206.405 1010.45 256.124 1014.47 326.773 C 1081.5 362.14 1127.25 427.292 1074.84 498.011 C 1089.93 508.696 1099.62 523.464 1103.89 541.506 C 1108.2 559.798 1105.02 579.051 1095.07 594.992 C 1091.95 599.887 1084.66 610.433 1078.15 605.889 C 1076.04 598.553 1088.32 584.55 1090.57 573.203 C 1092.87 561.613 1093.12 563.842 1092.93 550.473 C 1090.77 531.52 1083.59 519.235 1068.42 507.734 C 1065.1 505.217 1060.67 501.978 1058.96 498.261 C 1061.8 490.54 1074.15 478.076 1077.24 470.784 C 1096.3 425.741 1073.25 381.102 1035.65 354.484 C 1027.9 347.377 1008.82 341.025 1002.52 334.617 C 999.626 329.612 998.982 318.601 998.421 313.122 C 994.849 278.225 971.061 246.134 939.475 231.243 C 911.41 218.011 878.916 220.578 850.716 232.125 C 840.704 236.225 831.477 241.306 821.291 245.118 C 839.326 223.182 858.61 215.853 885.625 211.247 z"/>
<path transform="translate(0,0)" fill="rgb(23,23,23)" d="M 570.972 1474.97 C 579.603 1475.15 586.742 1481.88 594.962 1485.26 C 607.721 1490.5 620.284 1486.85 632.241 1482.17 C 615.251 1527.28 590.474 1542.38 545.454 1555.81 C 519.871 1562.15 505.156 1560.75 480.32 1555.18 C 493.369 1531.64 546.24 1483.16 570.972 1474.97 z"/>
<path transform="translate(0,0)" fill="rgb(23,23,23)" d="M 1069.31 675.452 C 1070.55 675.654 1072.07 676.081 1073.32 676.39 C 1079.6 682.355 1085.75 699.045 1088.41 707.753 C 1106.13 765.873 1104.53 823.897 1093.62 883.134 C 1091.26 895.956 1083.58 928.228 1083.31 938.583 C 1082.33 976.215 1097.73 1005.29 1078.81 1042.33 C 1075.23 1044.89 1076.14 1045.04 1072.38 1045.34 C 1071.22 1044.14 1070.41 1043.82 1070.56 1042.35 C 1071.86 1029.81 1075.15 1021.13 1075.82 1007.78 C 1077.02 983.658 1069.38 957.876 1071.27 934.46 C 1072.41 920.401 1077.7 901.08 1080.17 886.629 C 1086.28 850.845 1091.12 819.314 1089.93 782.969 C 1088.67 744.351 1078.55 712.008 1069.31 675.452 z"/>
<path transform="translate(0,0)" fill="rgb(23,23,23)" d="M 1237.53 265.48 C 1243.14 268.102 1282.95 326.484 1290.31 335.985 C 1272.45 336.1 1254.59 336.493 1236.75 337.161 C 1220.34 337.511 1203.96 338.511 1187.63 340.161 C 1203.84 311.392 1217.77 291.7 1237.53 265.48 z"/>
<path transform="translate(0,0)" fill="rgb(23,23,23)" fill-opacity="0.988235" d="M 628.896 185.546 L 630.709 186.088 C 634.872 190.71 630.204 196.921 627.287 201.75 C 576.55 286.451 576.426 395.712 669.509 452.498 C 682.159 460.215 731.827 470.578 731.32 470.15 L 731.045 471.44 L 727.921 473.013 C 690.751 472.794 664.156 463.407 636.054 437.917 C 603.004 408.269 583.535 366.382 582.179 322.003 C 580.452 278.801 599.513 217.196 628.896 185.546 z"/>
<path transform="translate(0,0)" fill="rgb(23,23,23)" d="M 1011.68 715.102 L 1014.88 716.311 C 1024.72 733.493 1029.18 750.963 1034.01 770.026 C 1049.19 829.869 1056.87 894.741 1036.19 954.272 C 1028.23 977.2 1020.92 990.503 1027.27 1015.5 C 1028.46 1020.2 1029.48 1024.02 1027.52 1028.63 C 1015.57 1027.87 1013.95 1014.1 1012.95 1004.57 C 1010.62 982.351 1021.44 962.966 1027.73 942.239 C 1046.81 879.363 1036.85 812.746 1020.28 750.541 C 1016.89 737.884 1013.5 728.121 1011.68 715.102 z"/>
<path transform="translate(0,0)" fill="rgb(23,23,23)" d="M 457.628 831.882 L 458.097 832.361 C 459.031 836.768 450.032 851.497 449.617 859.091 C 446.625 913.881 531.864 1006.75 567.385 1047.02 C 571.58 1051.77 580.161 1060.19 579.744 1066.93 C 577.361 1069.15 578.309 1068.47 574.104 1068.55 C 560.419 1060.54 516.382 1007.91 505.572 993.28 C 479.49 957.97 406.27 871.615 457.628 831.882 z"/>
<path transform="translate(0,0)" fill="rgb(23,23,23)" d="M 190.919 869.34 C 201.645 865.951 213.365 868.618 221.568 876.316 C 229.77 884.013 233.176 895.541 230.474 906.46 C 227.772 917.38 219.383 925.989 208.537 928.972 C 192.199 933.468 175.269 924.053 170.467 907.801 C 165.666 891.55 174.761 874.446 190.919 869.34 z"/>
<path transform="translate(0,0)" fill="rgb(23,23,23)" d="M 708.623 386.589 C 695.426 359.865 693.634 325.635 715.356 302.542 C 729.308 287.709 755.043 277.85 771.837 294.138 L 771.18 297.446 C 761.94 302.333 746.169 296.142 736.257 301.317 C 713.917 312.98 708.305 334.59 712.507 358.053 C 714.604 369.763 725.784 388.323 722.993 395.666 C 713.449 401.685 701.891 396.57 690.437 408.978 C 676.766 423.788 686.577 432.466 681.979 443.718 L 680.822 443.505 C 667.628 417.351 683.159 395.099 708.623 386.589 z"/>
<path transform="translate(0,0)" fill="rgb(23,23,23)" d="M 568.34 151.428 C 572.741 168.764 569.801 185.602 564.767 202.458 C 558.839 222.313 544.495 246.603 558.749 265.629 C 557.096 281.278 553.452 292.73 550.42 307.9 C 543.966 340.2 545.432 368.594 553.639 400.261 C 551.735 406.111 554.22 406.234 554.702 411.019 C 555.413 418.081 561.557 425.903 562.033 431.548 C 561.52 432.888 561.589 432.483 560.315 433.56 C 558.103 429.768 557.579 427.374 555.304 423.998 C 551.299 418.054 551.318 407.812 545.654 402.655 C 530.588 358.817 537.227 308.462 550.883 265.289 C 542.532 237.973 554.443 215.48 560.158 188.594 C 562.759 176.356 565.016 163.293 568.34 151.428 z"/>
<path transform="translate(0,0)" fill="rgb(55,161,254)" d="M 1241.75 1216.75 C 1255.77 1214.55 1268.93 1224.14 1271.12 1238.17 C 1273.31 1252.19 1263.71 1265.34 1249.68 1267.52 C 1235.67 1269.7 1222.54 1260.11 1220.35 1246.1 C 1218.16 1232.09 1227.74 1218.96 1241.75 1216.75 z"/>
<path transform="translate(0,0)" fill="rgb(23,23,23)" fill-opacity="0.984314" d="M 369.533 97.8547 C 369.963 97.8877 371.178 98.4568 371.647 98.6512 L 372.09 101.434 C 369.476 109.568 352.035 131.22 345.944 138.551 C 355.799 142.28 391.595 158.289 392.167 168.802 L 390.301 169.938 C 376.93 170.812 350.855 153.421 339.333 146.375 C 335.436 153.213 330.49 160.246 325.769 166.515 C 323.116 170.283 319.907 176.48 315.097 176.562 L 314.448 174.597 C 316.441 163.244 324.344 150.798 330.89 141.407 C 323.246 136.907 298.796 123.82 294.968 117.368 L 295.997 116.486 C 305.341 117.296 326.65 128.783 335.668 133.523 C 344.605 119.882 356.121 107.129 369.533 97.8547 z"/>
<path transform="translate(0,0)" fill="rgb(23,23,23)" fill-opacity="0.984314" d="M 1358.3 1066.83 L 1361.92 1068.28 C 1367.25 1078.99 1341.08 1097.95 1333.28 1102.47 C 1340.59 1108.21 1369.44 1124.58 1370.71 1131.51 C 1369.21 1134.65 1370.32 1133.4 1367.06 1135.16 C 1354.83 1135.16 1335.17 1117.78 1325.68 1109.92 C 1316.66 1117.26 1308.72 1122.7 1299.07 1129.17 C 1296.2 1131.14 1295.31 1132.23 1291.86 1131.18 L 1291.58 1129.07 C 1294.62 1122.55 1311.5 1108.84 1317.94 1102.86 C 1309.72 1094.04 1294.83 1081.89 1289.6 1071.14 L 1290.37 1069.68 C 1296.78 1069.71 1318.52 1091.25 1325.28 1096.6 C 1333.77 1088.06 1348.31 1072.28 1358.3 1066.83 z"/>
<path transform="translate(0,0)" fill="rgb(23,23,23)" d="M 607.904 972.457 C 600.375 954.757 591.799 937.384 583.893 919.906 C 579.154 909.432 565.696 886.523 567.935 875.505 L 569.637 875.239 C 577.486 880.528 582.809 892.469 586.107 900.983 C 599.795 905.542 654.407 916.829 662.007 928.076 L 661.428 930.264 L 659.406 931.325 C 638.144 929.629 608.845 916.932 588.648 908.669 C 596.405 922.6 607.508 949.533 612.881 964.89 L 611.51 966.59 L 610.087 966.55 C 608.244 968.264 608.319 969.914 607.904 972.457 z"/>
<path transform="translate(0,0)" fill="rgb(55,161,254)" d="M 780.089 39.902 L 781.946 40.3551 C 783.392 43.6381 776.184 89.8344 775.037 96.8668 C 769.584 92.5131 756.999 84.722 750.469 80.3421 C 741.707 74.6026 737.619 72.0093 729.818 64.8689 C 739.139 58.3905 768.18 45.6753 780.089 39.902 z"/>
<path transform="translate(0,0)" fill="rgb(55,161,254)" d="M 198.576 1073.04 C 202.984 1079.37 200.086 1119.72 199.919 1130.22 C 190.975 1123.92 180.399 1117.44 171.107 1111.48 C 163.441 1107.15 156.378 1103.49 149.554 1097.89 C 165.171 1090.64 184.133 1081.9 198.576 1073.04 z"/>
<path transform="translate(0,0)" fill="rgb(55,161,254)" d="M 485.573 1255.75 C 487.291 1255.77 487.653 1255.96 489.347 1256.32 L 490.506 1258.28 C 490.049 1266.58 476.837 1281.11 471.287 1287.88 C 478.054 1291.82 489.872 1297.19 491.139 1305.46 L 489.498 1307.01 C 480.483 1308.36 471.036 1302.19 463.593 1297.71 C 458.623 1305.46 450.382 1321.59 440.593 1321.31 C 441.261 1312.66 449.053 1299.21 454.242 1292.28 C 447.356 1288.5 429.503 1279.48 428.032 1271.8 L 429.907 1270.81 C 438.865 1271.09 452.105 1279.05 459.619 1283.83 C 467.931 1270.69 473.306 1265.23 485.573 1255.75 z"/>
<path transform="translate(0,0)" fill="rgb(23,23,23)" fill-opacity="0.976471" d="M 553.639 400.261 C 571.623 460.078 610.21 510.223 665.391 540.565 C 671.679 544.022 695.749 554.349 697.81 558.833 C 693.591 562.231 679.756 554.665 674.97 552.44 C 641.715 537.105 612.56 514.119 589.887 485.361 C 573.028 464.251 551.618 429.189 545.654 402.655 C 551.318 407.812 551.299 418.054 555.304 423.998 C 557.579 427.374 558.103 429.768 560.315 433.56 C 561.589 432.483 561.52 432.888 562.033 431.548 C 561.557 425.903 555.413 418.081 554.702 411.019 C 554.22 406.234 551.735 406.111 553.639 400.261 z"/>
<path transform="translate(0,0)" fill="rgb(23,23,23)" d="M 1323.59 177.228 C 1345.24 176.394 1358.31 192.747 1347.54 213.64 C 1343.19 222.061 1334.97 224.14 1326.38 226.154 C 1311.14 221.736 1305.55 217.354 1303.76 201.295 L 1305.66 198.371 C 1306.27 198.29 1306.88 198.21 1307.49 198.129 C 1312.56 204.601 1317.32 211.737 1325.19 215.136 C 1327.29 215.945 1329.97 216.316 1331.92 215.005 C 1337.06 211.553 1341.58 198.181 1337.22 193.042 C 1330.51 185.136 1317.93 191.372 1308.87 190.316 L 1307.73 188.855 C 1310.62 180.89 1316.28 179.098 1323.59 177.228 z"/>
<path transform="translate(0,0)" fill="rgb(23,23,23)" fill-opacity="0.984314" d="M 816.763 363.509 L 817.773 364.016 C 819.109 366.271 817.968 371.37 817.628 374.176 C 813.412 408.893 832.914 438.7 866.962 447.513 C 871.888 448.788 886.484 450.853 887.659 455.88 L 885.512 457.971 C 848.813 464.64 813.386 429.691 811.84 394.118 C 811.417 384.407 812.099 372.164 816.763 363.509 z"/>
<path transform="translate(0,0)" fill="rgb(23,23,23)" d="M 964.329 357.011 C 974.651 356.673 980.889 364.482 982.005 374.189 C 983.084 382.889 980.586 391.654 975.083 398.478 C 969.424 405.487 964.219 407.871 955.553 408.719 C 954.401 408.094 953.554 407.309 952.505 406.479 C 951.141 397.868 969.113 393.36 971.35 385.226 C 974.782 372.741 973.595 366.466 961.142 362.17 L 959.928 361.756 C 960.491 358.961 961.227 359.319 964.329 357.011 z"/>
<path transform="translate(0,0)" fill="rgb(23,23,23)" d="M 1057.04 987.178 C 1065.22 989.781 1065.42 1007.21 1065.66 1014.2 C 1066.14 1028.21 1062.47 1039.32 1056.35 1051.67 L 1054.37 1053.88 L 1052.45 1053.74 C 1049.1 1048.23 1056.56 1026.32 1056.95 1018.2 C 1057.45 1007.84 1057.18 997.468 1057.04 987.178 z"/>
<path transform="translate(0,0)" fill="rgb(23,23,23)" d="M 1036.94 995.277 C 1041.59 996.381 1042.68 1001.49 1043.53 1005.66 C 1047.02 1022.77 1043.91 1036.39 1036.16 1051.59 C 1033.71 1052.75 1033.9 1052.74 1031.2 1052.6 C 1028.92 1049.23 1036.17 1019.83 1035.79 1012.15 C 1035.61 1008.69 1036.6 999.267 1036.94 995.277 z"/>
<path transform="translate(0,0)" fill="rgb(23,23,23)" d="M 586.151 148.403 C 587.421 149.034 588.902 149.764 589.298 151.365 C 593.887 169.887 592.519 187.257 584.586 203.689 L 581.497 204.319 L 580.213 203.169 C 579.79 195.435 583.087 179.45 584.008 171.106 C 584.843 163.534 585.41 155.952 586.151 148.403 z"/>
<path transform="translate(0,0)" fill="rgb(23,23,23)" d="M 914.847 415.004 C 916.952 417.006 916.243 415.779 916.627 419.016 C 913.267 431.076 886.942 433.147 876.345 430.6 C 873.882 429.26 873.608 429.333 871.954 426.984 C 874.866 424.457 883.905 425.548 889.792 423.732 C 898.539 421.034 906.181 417.702 914.847 415.004 z"/>
<path transform="translate(0,0)" fill="rgb(23,23,23)" d="M 604.555 151.171 L 606.631 151.747 C 615.51 162.685 608.041 195.344 603.348 207.668 C 602.494 208.102 603.106 207.87 601.388 207.804 C 600.62 204.842 601.973 198.827 602.836 195.948 C 607.244 181.25 599.245 164.529 604.555 151.171 z"/>
<path transform="translate(0,0)" fill="rgb(23,23,23)" d="M 846.86 374.641 C 851.926 376.168 855.997 381.834 860.089 383.548 C 864.101 385.228 870.211 384.67 874.985 386.991 C 875.285 389.896 875.278 388.885 872.78 391.97 C 861.097 396.593 842.471 387.643 846.86 374.641 z"/>
<path transform="translate(0,0)" fill="url(#Gradient1)" d="M 612.881 964.89 C 615.691 971.385 621.963 986.057 620.536 992.688 L 619.198 992.884 C 614.574 988.413 610.757 978.687 607.904 972.457 C 608.319 969.914 608.244 968.264 610.087 966.55 L 611.51 966.59 L 612.881 964.89 z"/>
</svg>