<svg version="1.1" xmlns="http://www.w3.org/2000/svg" style="display: block;" viewBox="0 0 1600 1600" width="400" height="400" preserveAspectRatio="none">
<defs>
	<linearGradient id="Gradient1" gradientUnits="userSpaceOnUse" x1="281.056" y1="1169.71" x2="465.689" y2="1274.28">
		<stop class="stop0" offset="0" stop-opacity="0.984314" stop-color="rgb(0,0,0)"/>
		<stop class="stop1" offset="1" stop-opacity="1" stop-color="rgb(34,33,33)"/>
	</linearGradient>
</defs>
<path transform="translate(0,0)" fill="rgb(19,19,19)" d="M 808.543 564.462 L 809.817 563.62 C 824.219 553.997 841.18 546.965 856.823 539.466 C 872.753 531.83 888.456 523.736 904.36 516.05 C 912.971 511.889 927.39 507.159 934.113 500.605 C 943.5 491.454 952.589 392.807 953.424 378.184 C 954.386 361.363 955.393 344.36 955.283 327.513 C 955.222 318.286 954.076 309.004 954.228 299.804 C 954.274 297.009 954.462 294.322 955.955 291.903 L 957.425 292.587 C 972.626 323.467 956.005 460.234 947.556 499.176 C 991.182 496.783 1038.42 502.642 1082.56 498.891 C 1088.06 498.424 1104.5 498.397 1108.33 501.803 C 1111.16 509.178 1109.07 519.956 1107.3 527.459 C 1093.19 587.288 1077.94 646.726 1060.04 705.513 C 1163.01 688.579 1268.69 702.64 1363.66 745.91 C 1378.98 752.913 1405.47 766.199 1419.01 775.81 C 1351.4 1003.95 1185.21 1096.31 972.193 1167.1 C 955.14 1172.76 937.833 1177.62 920.466 1182.19 C 909.691 1185.15 894.321 1188.24 884.406 1191.61 L 883.588 1192.5 C 870.777 1206.71 855.237 1237.39 847.259 1255.49 C 841.529 1267.92 837.554 1281.26 831.117 1293.33 C 830.693 1294.13 821.75 1294.77 820.486 1294.81 C 766.23 1296.39 713.166 1311.83 660.118 1322.01 C 657.351 1322.54 653.292 1323.37 650.825 1321.83 C 649.305 1310.8 678.096 1230.5 685.002 1217.74 C 672.404 1218.36 654.378 1218.55 641.736 1217.98 C 637.312 1206.24 631.676 1195.52 626.727 1184.09 C 601.531 1125.89 570.008 1066.32 548.709 1006.79 C 554.682 997.785 566.354 984.004 574.807 977.529 C 545.282 956.252 516.069 937.621 482.378 923.583 C 479.673 922.455 474.587 919.89 473.061 917.48 C 477.87 910.047 508.652 892.781 518.378 886.745 C 540.674 873.001 562.617 858.693 584.186 843.836 C 600.122 832.792 615.745 820.783 629.743 807.335 C 654.187 813.868 718.669 831.54 738.433 842.679 C 744.111 839.401 749.718 836.004 755.251 832.488 C 758.027 822.812 760.553 806.423 762.421 796.199 L 773.864 733.5 C 779.321 703.177 784.478 672.801 789.335 642.376 C 792.446 622.842 797.604 591.402 798.291 572.463 C 799.911 527.835 794.311 473.359 782.671 430.227 C 772.76 444.527 715.829 532.815 707.078 538.495 L 705.821 537.895 C 708.884 517.965 806.65 372.836 824.046 363.28 C 828.012 363 826.9 362.517 829.895 364.224 C 830.013 366.806 829.778 367.549 828.055 369.787 C 815.791 385.716 798.814 402.324 790.644 420.906 C 802.772 456.442 806.513 526.924 808.543 564.462 z M 773.708 984.262 C 786.485 988.31 795.829 987.716 809.12 986.529 C 820.229 985.537 832.906 983.541 834.536 997.752 C 838.742 997.046 843.691 996.096 847.851 995.597 C 848.211 1004.83 849.619 1033.22 846.357 1040.03 C 833.713 1049.42 670.389 1105.92 661.601 1103.61 C 653.934 1101.59 640.527 1077.32 634.89 1070.45 C 649.282 1061.67 699.275 1044.96 717.963 1037.84 C 715.904 1032.08 717.043 1018.28 718.188 1011.16 C 720.511 996.699 724.457 987.21 727.64 971.964 C 736.046 931.704 744.83 890.159 751.957 849.565 C 751.632 848.842 751.307 848.119 750.982 847.396 C 754.502 842.313 754.803 838.362 755.251 832.488 C 749.718 836.004 744.111 839.401 738.433 842.679 C 718.669 831.54 654.187 813.868 629.743 807.335 C 615.745 820.783 600.122 832.792 584.186 843.836 C 562.617 858.693 540.674 873.001 518.378 886.745 C 508.652 892.781 477.87 910.047 473.061 917.48 C 474.587 919.89 479.673 922.455 482.378 923.583 C 516.069 937.621 545.282 956.252 574.807 977.529 C 566.354 984.004 554.682 997.785 548.709 1006.79 C 570.008 1066.32 601.531 1125.89 626.727 1184.09 C 631.676 1195.52 637.312 1206.24 641.736 1217.98 C 654.378 1218.55 672.404 1218.36 685.002 1217.74 C 678.096 1230.5 649.305 1310.8 650.825 1321.83 C 653.292 1323.37 657.351 1322.54 660.118 1322.01 C 713.166 1311.83 766.23 1296.39 820.486 1294.81 C 821.75 1294.77 830.693 1294.13 831.117 1293.33 C 837.554 1281.26 841.529 1267.92 847.259 1255.49 C 855.237 1237.39 870.777 1206.71 883.588 1192.5 L 884.406 1191.61 C 894.321 1188.24 909.691 1185.15 920.466 1182.19 C 937.833 1177.62 955.14 1172.76 972.193 1167.1 C 1185.21 1096.31 1351.4 1003.95 1419.01 775.81 C 1405.47 766.199 1378.98 752.913 1363.66 745.91 C 1268.69 702.64 1163.01 688.579 1060.04 705.513 C 1043.37 709.46 1025.93 712.672 1009.64 716.65 C 1010.11 712.664 1010.73 709.009 1011.44 705.066 C 1018.51 665.936 1027.29 626.746 1032.93 587.39 C 998.43 580.848 970.831 579.906 936.09 587.344 C 927.252 589.236 917.074 591.463 908.937 595.338 C 906.204 602.7 904.447 610.33 902.59 617.948 C 897.446 639.059 891.517 659.955 884.973 680.677 C 878.027 702.417 870.802 724.067 863.301 745.622 C 860.454 753.786 853.159 772.712 851.458 780.169 C 848.829 783.86 847.317 788.561 847.102 793.075 C 842.119 802.701 832.666 831.326 828.208 843.549 C 817.501 872.419 806.622 901.226 795.574 929.967 C 789.413 946.052 781.108 969.359 773.708 984.262 z M 729.612 999.657 C 727.348 1011.04 726.244 1023.45 725.753 1035.05 C 730.5 1033.74 736.728 1031.55 741.319 1029.63 C 768.23 1018.37 799.915 1011.36 826.335 999.681 C 818.345 993.648 803.411 999.76 792.576 997.96 C 783.264 996.413 776.418 993.631 767.676 990.368 C 754.042 998.303 745.813 999.834 729.612 999.657 z M 836.395 1009.01 C 794.246 1023.79 751.965 1038.19 709.558 1052.21 C 690.998 1058.4 664.277 1068.23 646.225 1073.05 C 652.871 1079 656.358 1082.16 662.185 1089.1 L 665.137 1093.4 C 667.49 1093.73 700.583 1081.45 707.162 1079.25 C 737.592 1069.12 768.104 1059.23 798.694 1049.6 C 808.107 1046.66 833.195 1039.86 841.117 1036.74 C 838.552 1024.7 839.696 1018.6 838.08 1009.54 L 836.395 1009.01 z"/>
<path transform="translate(0,0)" fill="rgb(52,162,254)" d="M 1060.04 705.513 C 1163.01 688.579 1268.69 702.64 1363.66 745.91 C 1378.98 752.913 1405.47 766.199 1419.01 775.81 C 1351.4 1003.95 1185.21 1096.31 972.193 1167.1 C 955.14 1172.76 937.833 1177.62 920.466 1182.19 C 909.691 1185.15 894.321 1188.24 884.406 1191.61 L 883.588 1192.5 C 870.777 1206.71 855.237 1237.39 847.259 1255.49 C 841.529 1267.92 837.554 1281.26 831.117 1293.33 C 830.693 1294.13 821.75 1294.77 820.486 1294.81 C 766.23 1296.39 713.166 1311.83 660.118 1322.01 C 657.351 1322.54 653.292 1323.37 650.825 1321.83 C 649.305 1310.8 678.096 1230.5 685.002 1217.74 C 672.404 1218.36 654.378 1218.55 641.736 1217.98 C 637.312 1206.24 631.676 1195.52 626.727 1184.09 C 601.531 1125.89 570.008 1066.32 548.709 1006.79 C 554.682 997.785 566.354 984.004 574.807 977.529 C 545.282 956.252 516.069 937.621 482.378 923.583 C 479.673 922.455 474.587 919.89 473.061 917.48 C 477.87 910.047 508.652 892.781 518.378 886.745 C 540.674 873.001 562.617 858.693 584.186 843.836 C 600.122 832.792 615.745 820.783 629.743 807.335 C 654.187 813.868 718.669 831.54 738.433 842.679 C 744.111 839.401 749.718 836.004 755.251 832.488 C 754.803 838.362 754.502 842.313 750.982 847.396 C 743.021 851.846 733.17 859.4 725.324 864.523 C 685.301 890.66 652.711 921.863 617.837 954.179 C 598.48 971.898 579.228 989.732 560.082 1007.68 C 567.175 1019.21 579.268 1048.16 585.088 1061.67 C 598.045 1091.48 610.706 1121.41 623.068 1151.47 C 628.189 1164 642.825 1197.53 645.859 1208.64 C 665.293 1205.35 693.283 1204.24 713.381 1203.39 C 831.779 1198.72 946.976 1168.86 1056.49 1124.64 C 1132.15 1094.09 1243.52 1040.59 1295.42 976.08 C 1297.15 967.79 1297.1 937.864 1296.88 928.514 C 1295.05 848.328 1280.29 770.51 1220.71 712.643 C 1204.93 708.818 1182.36 708.268 1165.98 707.473 C 1054.86 702.078 944.775 742.232 847.102 793.075 C 847.317 788.561 848.829 783.86 851.458 780.169 C 864.064 774.503 879.454 765.677 894.007 759.094 C 931.494 742.217 970.136 728.034 1009.64 716.65 C 1025.93 712.672 1043.37 709.46 1060.04 705.513 z M 583.828 968.524 C 594.074 956.687 617.287 936.292 629.93 925.633 C 658.388 901.638 698.995 863.501 731.96 847.353 C 706.41 844.047 659.377 825.672 632.898 818.665 C 598.069 854.635 546.241 882.024 503.064 907.71 C 499.411 909.882 490.08 912.858 488.627 916.674 C 513.277 922.551 545.876 942.973 567.219 957.147 C 572.43 960.607 580.115 968.915 583.828 968.524 z M 661.316 1314.75 C 682.237 1304.43 798.83 1283.73 823.479 1284.95 C 830.877 1263.72 839.128 1243.48 850.35 1223.95 C 852.338 1220.5 868.842 1196.06 868.92 1195.14 L 867.877 1194.24 C 858.072 1197.39 842.359 1199.24 831.927 1200.93 C 804.82 1205.43 777.592 1209.16 750.274 1212.12 C 743.433 1212.85 697.995 1214.95 695.773 1220.32 C 687.33 1240.74 681.838 1263.68 672.435 1283.97 C 670.121 1288.98 660.722 1310.16 660.698 1313.98 L 661.316 1314.75 z"/>
<path transform="translate(0,0)" fill="rgb(52,162,254)" d="M 834.536 997.752 C 838.742 997.046 843.691 996.096 847.851 995.597 C 848.211 1004.83 849.619 1033.22 846.357 1040.03 C 833.713 1049.42 670.389 1105.92 661.601 1103.61 C 653.934 1101.59 640.527 1077.32 634.89 1070.45 C 649.282 1061.67 699.275 1044.96 717.963 1037.84 L 725.753 1035.05 C 730.5 1033.74 736.728 1031.55 741.319 1029.63 C 768.23 1018.37 799.915 1011.36 826.335 999.681 L 834.536 997.752 z M 646.225 1073.05 C 652.871 1079 656.358 1082.16 662.185 1089.1 L 665.137 1093.4 C 667.49 1093.73 700.583 1081.45 707.162 1079.25 C 737.592 1069.12 768.104 1059.23 798.694 1049.6 C 808.107 1046.66 833.195 1039.86 841.117 1036.74 C 838.552 1024.7 839.696 1018.6 838.08 1009.54 L 836.395 1009.01 C 794.246 1023.79 751.965 1038.19 709.558 1052.21 C 690.998 1058.4 664.277 1068.23 646.225 1073.05 z"/>
<path transform="translate(0,0)" fill="rgb(19,19,19)" fill-opacity="0.988235" d="M 632.821 539.692 C 636.212 540.355 637.405 540.224 639.66 542.568 C 635.721 552.285 622.997 574.836 617.325 583.696 C 639.346 594.348 667.445 605.684 690.14 615.555 C 692.339 608.608 695.419 602.351 699.221 596.153 C 703.759 588.756 701.467 589.778 702.103 582.926 C 704.812 581.459 703.365 581.698 706.636 582.57 C 715.225 590.938 703.376 610.979 697.737 619.132 C 709.017 624.537 749.663 640.854 754.208 649.643 C 754.702 665.049 700.845 796.699 690.377 801.847 C 685.099 801.412 678.328 797.897 673.282 795.638 C 668.845 794.571 632.038 778.273 626.623 775.853 C 583.285 756.487 538.371 737.643 495.915 716.66 C 502.614 673.827 530.368 594.68 558.97 561.349 C 575.314 568.264 590.705 572.686 609.014 580.78 C 615.582 569.011 622.752 549.166 632.821 539.692 z M 529.012 638.224 C 543.186 644.008 589.367 667.26 597.688 678.042 L 597.718 678.417 C 589.389 678.392 535.42 652.339 525.63 646.552 C 520.516 664.615 512.796 694.854 506.264 711.453 C 526.353 718.108 568.752 738.977 589.93 748.863 C 611.328 758.838 632.653 768.969 653.904 779.254 C 663.42 783.888 680.067 791.791 688.841 797.083 C 696.281 778.265 704.178 759.631 712.525 741.196 C 702.411 738.647 651.719 712.424 647.925 704.723 C 655.487 702.766 702.101 726.11 711.62 731.642 C 712.897 732.39 714.159 733.165 715.403 733.967 C 724.702 708.334 735.043 677.604 745.387 652.677 C 727.486 646.246 703.953 634.799 686.306 626.666 C 656.345 612.922 626.47 598.992 596.682 584.876 C 587.205 580.351 569.3 570.857 560.298 567.103 C 552.026 589.164 538.878 616.085 529.012 638.224 z"/>
<path transform="translate(0,0)" fill="rgb(19,19,19)" fill-opacity="0.988235" d="M 616.171 657.564 C 627.336 663.397 637.371 666.269 648.652 673.695 C 640.408 693.364 633.877 711.135 626.171 730.883 C 619.369 727.494 604.531 723.702 601.281 718.617 C 605.229 716.507 616.394 719.666 621.317 720.749 C 624.057 718.104 623.315 718.33 624.601 714.144 C 628.113 701.533 633.062 689.119 637.935 676.959 C 630.054 674.502 626.845 672.905 619.662 668.908 C 615.272 678.006 608.828 699.515 602.279 705.507 C 598.874 705.795 600.128 706.355 598.075 704.629 C 595.64 696.106 609.946 663.737 616.171 657.564 z"/>
<path transform="translate(0,0)" fill="url(#Gradient1)" d="M 442.417 1085.39 C 482.779 1080.97 518.897 1184.39 500.783 1217.45 C 486.834 1242.91 445.49 1248.14 420.214 1252.85 C 393.824 1257.71 367.329 1261.99 340.749 1265.67 C 309.708 1270.2 276.217 1274.37 246.736 1285.34 C 236.33 1289.27 228.496 1292.84 218.948 1298.63 C 214.781 1301.16 207.851 1307.53 204.238 1308.14 L 202.989 1307.02 C 203.617 1302.06 212.761 1295.33 216.57 1292.18 C 241.902 1271.23 271.941 1251.56 294.029 1227.26 C 312.425 1207.02 329.397 1182.14 346.002 1160.32 C 372.054 1126.09 395.424 1090.14 442.417 1085.39 z M 307.755 1260.31 C 346.687 1253.28 385.978 1248.55 424.67 1239.59 C 465.201 1230.21 508.275 1226.93 492.416 1172.17 C 485.835 1149.44 470.895 1113.33 451.307 1098.27 C 446.915 1095.35 440.088 1096.03 435.099 1096.29 C 377.094 1110.57 356.74 1169.51 319.035 1211.84 C 294.735 1239.12 283.88 1247.31 257.592 1270.05 C 260.938 1272.52 299.078 1261.56 307.755 1260.31 z"/>
<path transform="translate(0,0)" fill="rgb(19,19,19)" d="M 746.241 256.423 C 760.908 254.987 781.721 259.774 794.976 265.978 C 828.177 281.519 842.207 313.581 879.473 323.893 C 894.095 317.04 894.908 310.441 899.988 297.013 C 901.695 295.849 912.48 296.495 917.798 295.648 L 919.264 295.407 C 917.459 307.804 918.711 315.414 913.104 327.731 C 903.673 348.453 885.278 354.506 863.68 351.156 C 848.117 348.743 835.409 339.7 821.756 332.244 C 810.738 326.193 799.552 320.452 788.212 315.026 C 784.155 313.263 780.292 311.747 776.085 310.367 C 732.014 295.913 686.532 348.059 662.966 378.629 C 653.959 373.891 627.649 365.286 617.762 363.11 C 618.552 353.557 618.773 315.534 624.875 310.364 C 654.778 285.024 707.145 258.733 746.241 256.423 z"/>
<path transform="translate(0,0)" fill="rgb(52,162,254)" d="M 525.374 1031.76 C 527.391 1031.91 527.145 1032.06 529.116 1032.88 C 532.048 1036.2 536.504 1042.63 538.159 1046.33 C 548.168 1068.75 611.094 1193.94 613.658 1211.06 C 609.11 1215.02 585.829 1215.11 578.491 1215.42 C 566.939 1216.21 555.279 1216.08 543.712 1215.93 C 533.471 1198.67 484.974 1085.6 487.803 1070.39 C 489.99 1058.63 515.622 1037.93 525.374 1031.76 z M 492.926 1072.75 C 513.762 1109.18 534.784 1165.62 549.77 1204.96 C 556.724 1205.98 566.494 1205.71 573.728 1205.73 C 583.717 1205.61 592.997 1205.17 602.907 1206.34 L 604.497 1206.52 L 605.45 1206.64 C 598.125 1195.51 586.102 1170.97 579.615 1158.3 C 561.238 1121.54 543.199 1084.6 525.501 1047.51 C 524.838 1046.1 525.206 1046.64 524.38 1045.68 C 516.006 1054.62 502.701 1065.23 492.926 1072.75 z"/>
<path transform="translate(0,0)" fill="rgb(19,19,19)" d="M 817.395 145.506 C 818.465 127.504 823.346 109.458 832.755 96.1682 C 845.56 78.0844 859.925 63.5038 882.932 70.2253 C 888.143 70.8981 895.482 69.7178 900.489 71.0893 C 918.293 75.9662 914.986 91.4085 917.572 105.997 L 917.769 107.064 L 917.334 115.52 L 915.351 111.016 L 914.032 110.602 C 907.577 103.478 899.224 93.7004 894.268 85.66 C 888.559 103.353 877.316 128.369 864.159 141.805 C 857.319 143.276 850.596 144.607 846.96 151.134 C 839.603 164.342 848.471 168.95 857.768 173.492 C 867.022 190.433 868.869 204.664 867.551 224.098 C 881.664 234.886 891.767 242.478 906.986 251.85 C 910.336 245.412 913.05 241.174 917.066 235.085 L 915.507 222.893 L 916.796 218.481 L 917.813 218.638 C 920.296 223.324 920.475 223.61 921.006 229.058 C 921.673 235.902 915.675 243.913 915.123 248.71 C 916.201 256.61 920.778 257.57 927.397 261.995 C 931.46 263.189 930.664 262.306 932.882 265.092 C 930.808 268.116 922.7 276.174 919.809 278.536 C 908.702 287.613 900.681 281.711 893.859 272.809 C 890.222 279.479 888.076 282.849 883.525 288.847 C 872.194 276.525 859.595 261.06 844.372 254.274 C 828.102 256.553 822.501 264.799 812.214 265.923 L 811.207 264.085 C 817.462 250.084 833.286 245.833 847.187 246.389 C 854.473 234.685 868.355 215.459 858.465 201.024 C 850.842 197.542 848.156 189.25 844.324 181.8 C 836.66 166.898 829.414 156.951 817.395 145.506 z M 851.95 250.359 C 857.16 254.584 880.218 276.908 883.793 277.766 L 884.387 277.538 C 889.238 270.304 894.239 261.279 899.08 254.587 C 893.481 251.514 864.419 230.647 863.909 230.556 C 860.441 236.67 856.09 244.911 851.95 250.359 z"/>
<path transform="translate(0,0)" fill="rgb(19,19,19)" d="M 1346.34 1155.25 C 1356.48 1154.08 1366.75 1155.18 1376.41 1158.46 C 1399.89 1166.37 1410.62 1181.03 1421.15 1201.94 L 1422.11 1201.08 C 1436.99 1188.31 1456.37 1182.03 1475.92 1183.65 C 1514.73 1186.51 1547.72 1225.56 1511.94 1251.66 C 1482.01 1273.49 1399.26 1275.19 1363.88 1273.56 C 1344.62 1272.51 1325.43 1270.53 1306.36 1267.62 C 1301.91 1266.96 1292.67 1266.12 1289.99 1262.51 C 1291.81 1259.44 1312.31 1262.41 1317.2 1262.91 C 1371.3 1268.47 1442.24 1268.18 1493.65 1248.09 C 1521.94 1235.98 1521.37 1212.72 1493.63 1200.55 C 1475.59 1192.63 1452 1196.17 1436.22 1207.39 C 1430.5 1211.46 1422.03 1219.33 1415.82 1221.95 C 1412.31 1220.26 1406.98 1206.38 1405.22 1202.33 C 1386.6 1159.22 1327.05 1157.21 1304.99 1198.41 C 1301.65 1203.2 1298.91 1219.41 1291.6 1218.93 C 1279.17 1217.95 1268.67 1213.71 1255.91 1213.82 C 1238.7 1213.96 1224.79 1218.67 1221.23 1237.62 C 1220.1 1243.68 1220.29 1250.98 1217.12 1256.42 C 1205.97 1263.2 1204.75 1239.34 1206.9 1231.83 C 1217.44 1195.08 1257.18 1197.1 1287.05 1203.91 C 1297.87 1174.75 1315.95 1160.49 1346.34 1155.25 z"/>
<path transform="translate(0,0)" fill="rgb(19,19,19)" d="M 1337.35 262.335 C 1372.65 259.057 1426.02 274.125 1444.88 306.23 C 1445.07 306.132 1445.26 306.034 1445.45 305.936 C 1468.82 294.191 1495.92 292.298 1520.7 300.682 C 1534.4 305.359 1549.82 314.171 1556.31 327.775 C 1559.17 333.78 1560.14 340.869 1557.69 347.189 C 1554.67 354.995 1546.32 359.508 1539.11 362.847 C 1488.01 386.541 1257.21 394.892 1202.55 374.555 C 1191.71 370.521 1186.21 364.492 1181.45 354.099 C 1189.31 335.263 1204.83 332.267 1223.01 326.687 C 1244.56 320.072 1276.05 319.127 1291.15 339.03 C 1292.97 341.424 1294.7 344.355 1294.23 347.454 C 1290.19 347.034 1281.05 334.124 1269.05 331.515 C 1257.42 328.984 1253.71 329.677 1241.77 330.037 C 1229.5 332.305 1169.08 344.169 1197.88 364.772 C 1208.36 372.265 1251.74 374.323 1265.83 374.844 C 1352.12 377.944 1440.81 376.325 1525.62 358.879 C 1563.79 351.026 1552.22 321.588 1523.39 310.988 C 1504.42 304.013 1483.77 301.41 1464.08 307.994 C 1454.68 311.14 1445.93 317.977 1436.44 321.289 C 1434.52 319.507 1432.93 309.873 1431.72 305.695 C 1429.26 297.271 1417.46 291.173 1409.23 287.52 C 1373.35 271.578 1331.85 261.239 1296.9 285.68 C 1287.92 291.964 1281.1 301.951 1271.73 305.108 L 1270.01 303.673 C 1270.65 300.131 1271.9 297.558 1274.1 294.71 C 1289.91 274.267 1313.09 266.182 1337.35 262.335 z"/>
<path transform="translate(0,0)" fill="rgb(19,19,19)" fill-opacity="0.988235" d="M 299.155 312.362 C 329.557 312.625 367.854 329.739 374.415 362.171 C 382.793 357.629 388.531 355.278 398.051 354.147 C 421.437 351.369 453.764 366.352 467.248 385.42 C 501.543 433.916 426.763 429.603 400.013 431.586 C 348.941 434.767 296.981 438.45 245.862 439.706 C 225.923 440.196 163.016 442.504 164.159 412.755 C 165.557 376.375 218.432 373.125 239.744 394.294 C 241.86 396.395 242.698 397.4 242.648 400.118 C 236.595 402.218 231.347 394.529 226.367 392.551 C 205.25 384.166 182.973 387.484 172.577 409.445 C 169.567 438.031 247.988 430.621 266.469 430.175 C 305.291 428.988 344.086 427.039 382.832 424.329 C 404.936 422.881 435.708 422.326 456.075 417.664 C 485.173 411.003 453.41 377.894 439.526 371.479 C 414.862 360.084 397.913 355.03 375.887 375.326 C 374.158 376.918 366.555 383.179 364.571 383.724 C 358.822 376.271 377.257 357.475 344.76 334.072 C 329.066 322.934 309.608 318.448 290.622 321.589 C 251.558 328.432 240.1 365.956 230.928 367.533 L 229.299 366.362 C 228.246 359.722 237.951 344.431 242.221 339.616 C 257.617 322.256 276.338 314.421 299.155 312.362 z"/>
<path transform="translate(0,0)" fill="rgb(19,19,19)" d="M 1140.93 1288.95 C 1144.02 1289.45 1144.76 1289.68 1146.29 1292.15 C 1143.29 1299.83 1100.23 1316.53 1091.05 1320.56 L 990.645 1364.2 L 717.333 1480.94 C 677.565 1497.67 633.143 1514.49 594.359 1531.66 C 592.35 1532.01 592.493 1532.04 590.623 1531.24 L 590.637 1529.65 C 596.564 1523.45 666.106 1494.26 678.837 1488.67 L 845.127 1416.03 C 941.601 1374.02 1043.57 1328.03 1140.93 1288.95 z"/>
<path transform="translate(0,0)" fill="rgb(19,19,19)" d="M 755.079 320.769 C 757.635 321.922 757.48 321.796 759.252 323.966 C 760.428 335.085 679.541 502.476 669.899 530.303 C 691.723 558.071 707.038 549.548 711.979 554.531 L 711.228 556.68 C 700.975 565.563 675.821 547.956 667.708 540.631 C 644.715 555.75 641.305 579.071 672.716 586.797 C 690.809 584.049 688.062 576.266 699.825 568.087 L 701.415 568.512 C 701.773 575.807 695.241 587.449 688.828 590.282 C 646.593 608.935 619.302 556.989 662.729 532.862 C 674.017 500.436 735.248 335.576 755.079 320.769 z"/>
<path transform="translate(0,0)" fill="rgb(19,19,19)" fill-opacity="0.988235" d="M 388.334 995.934 C 391.304 996.125 391.276 995.961 393.791 997.804 L 394.011 999.978 C 389.735 1006.99 366.274 1016.93 358.018 1021.05 C 336.843 1031.7 315.586 1042.18 294.251 1052.51 C 232.931 1082.54 171.423 1112.2 109.73 1141.46 C 91.9308 1149.88 61.9401 1162.57 45.6504 1171.59 C 42.8581 1172.01 42.5168 1172.34 39.9398 1171.16 L 40.406 1169.46 C 46.4281 1164.15 110.94 1131.72 122.191 1126.19 C 210.493 1082.85 299.102 1037.13 388.334 995.934 z"/>
<path transform="translate(0,0)" fill="rgb(19,19,19)" fill-opacity="0.988235" d="M 413.116 798.123 C 415.595 797.444 416.743 797.606 418.619 799.04 L 418.672 801.459 C 417.363 803.852 415.083 806.971 412.7 808.18 C 400.741 814.246 387.942 820.531 376.011 826.47 C 345.685 841.707 315.202 856.63 284.568 871.238 L 145.066 938.388 C 122.54 949.101 92.8221 964.024 70.2886 973.118 C 68.5487 973.925 67.5052 973.825 65.5776 973.958 L 64.9151 972.872 C 67.4249 967.129 111.473 946.529 119.302 942.573 L 216.962 893.73 L 336.795 834.229 C 360.836 822.434 388.52 808.46 413.116 798.123 z"/>
<path transform="translate(0,0)" fill="rgb(19,19,19)" fill-opacity="0.988235" d="M 547.495 1344.01 C 550.686 1343.8 551.602 1344.04 553.772 1345.66 L 553.697 1347.83 C 548.604 1355.1 517.146 1368.12 506.891 1372.87 C 482.284 1384.32 457.598 1395.61 432.836 1406.72 C 379.337 1430.8 321.774 1457.82 267.738 1479.54 C 263.551 1481.35 264.58 1481.63 260.723 1481.06 L 260.373 1479.45 C 267.741 1469.36 519.07 1355.1 547.495 1344.01 z"/>
<path transform="translate(0,0)" fill="rgb(19,19,19)" fill-opacity="0.984314" d="M 1140.92 183.348 C 1146.9 186.036 1149.51 203.909 1151.66 210.761 C 1141.27 219.219 1124.4 230.194 1113.07 237.688 C 1093.07 250.959 1072.89 263.945 1052.53 276.643 C 1037.1 286.238 999.927 309.405 984.748 315.769 C 982.485 316.529 981.486 316.793 979.146 317.292 L 977.71 316.153 C 979.623 310.642 1025.23 282.839 1034.16 277.106 C 1069.91 254.488 1105.36 231.408 1140.52 207.871 C 1137.22 199.357 1134.7 191.164 1140.92 183.348 z"/>
<path transform="translate(0,0)" fill="rgb(19,19,19)" d="M 915.507 222.893 C 914.869 218.339 914.381 219.451 915.908 215.71 L 917.367 215.711 C 922.088 223.022 930.429 237.936 937.041 242.487 C 939.707 242.947 966.352 234.512 970.768 233.238 L 1066.32 206.196 C 1075.52 203.618 1120.49 189.577 1125.73 192.394 C 1123.14 200.803 963.074 245.819 940.836 251.041 C 938.367 255.503 935.573 260.863 932.882 265.092 C 930.664 262.306 931.46 263.189 927.397 261.995 L 933.916 249.948 C 930.378 245.921 926.383 240.227 923.107 235.814 C 921 240.774 919.488 245.809 915.123 248.71 C 915.675 243.913 921.673 235.902 921.006 229.058 C 920.475 223.61 920.296 223.324 917.813 218.638 L 916.796 218.481 L 915.507 222.893 z"/>
<path transform="translate(0,0)" fill="rgb(19,19,19)" d="M 917.769 107.064 C 932.219 137.85 940.904 188.769 902.133 206.746 C 900.439 207.532 899.825 207.732 897.959 207.954 C 900.004 199.667 930.996 193.116 923.29 148.439 C 922.242 142.361 921.642 134.959 919.175 129.338 L 917.953 128.999 L 914.359 131.748 C 912.447 131.372 911.628 131.122 909.773 130.505 C 906.567 135.455 914.067 148.684 913.433 155.259 C 909.583 158.975 903.236 159.911 898.397 157.76 L 898.031 156.137 C 901.175 152.631 904.167 152.843 908.78 151.364 C 906.683 146.364 902.744 134.68 903.58 129.602 L 910.572 123.747 C 913.024 124.462 916.157 125.946 917.896 125.014 C 916.234 118.066 906.637 120.257 901.952 115.437 L 902.504 113.346 C 906.748 111.936 908.473 115.643 912.876 114.025 C 913.797 112.088 913.676 112.676 914.032 110.602 L 915.351 111.016 L 917.334 115.52 L 917.769 107.064 z"/>
<path transform="translate(0,0)" fill="rgb(19,19,19)" d="M 1217.02 189.577 C 1219.33 189.831 1219.47 190.467 1221.66 192.003 L 1222 194.144 C 1214.07 216.534 1179.96 215.925 1161.24 212.155 C 1157.14 211.892 1156.93 211.521 1154.26 209.383 L 1154.33 207.83 C 1167.26 199.575 1189.84 218.67 1217.02 189.577 z"/>
<path transform="translate(0,0)" fill="rgb(19,19,19)" fill-opacity="0.988235" d="M 915.408 168.811 C 917.339 168.974 916.756 168.932 918.61 169.768 C 920.074 177.039 908.801 186.749 903.015 190.139 C 896.405 194.012 893.428 194.519 886.128 192.617 C 883.006 188.489 882.567 181.982 883.145 176.971 C 884.025 169.353 898.141 175.983 902.762 175.001 C 907.776 173.936 911.234 171.576 915.408 168.811 z M 903.086 185.613 L 904.306 182.742 C 902.088 180.952 893.077 180.483 887.097 178.375 C 887.083 182.496 886.786 183.226 888.857 186.551 C 893.53 190.173 898.345 188.401 903.086 185.613 z"/>
<path transform="translate(0,0)" fill="rgb(19,19,19)" fill-opacity="0.988235" d="M 1175.32 157.116 C 1188.15 156.875 1191.31 175.482 1183.22 180.261 C 1179.65 178.347 1181.56 171.991 1175.39 167.535 C 1172.26 167.174 1171.24 168.257 1168.47 170.019 L 1167.43 170.681 C 1160.26 175.743 1154.93 179.12 1146.98 182.766 C 1154.72 168.058 1159.75 163.472 1175.32 157.116 z"/>
<path transform="translate(0,0)" fill="rgb(19,19,19)" fill-opacity="0.988235" d="M 1212.77 178.922 C 1216.65 179.067 1215.73 178.492 1218.57 180.361 L 1218.4 182.083 C 1214.19 187.424 1205.6 191.935 1199.66 195.169 L 1198.84 195.416 C 1195.85 194.659 1197.05 195.466 1195.27 192.698 C 1196.4 186.589 1207.35 181.26 1212.77 178.922 z"/>
<path transform="translate(0,0)" fill="rgb(19,19,19)" d="M 1212 166.24 C 1214.28 167.083 1213.26 166.43 1214.92 168.592 C 1213.18 173.412 1202.94 178.301 1198.05 181.122 C 1195.35 179.668 1196.39 180.668 1194.84 178.005 L 1195.5 175.742 C 1199.63 170.741 1206 168.216 1212 166.24 z"/>
<path transform="translate(0,0)" fill="rgb(19,19,19)" fill-opacity="0.988235" d="M 1201.88 155.822 C 1205.71 155.58 1207.62 155.317 1210.5 157.884 L 1210.21 159.994 C 1207.51 163.732 1205.54 164.255 1201.4 166.3 C 1198.8 167.402 1198.88 167.555 1196 166.912 C 1192.58 161.369 1197.87 158.461 1201.88 155.822 z"/>
</svg>